<svg xmlns="http://www.w3.org/2000/svg" viewBox="0 0 1200 600"><defs><style>.cls-1{fill:#469dcd;}.cls-1,.cls-2{stroke:#fff;stroke-miterlimit:10;stroke-width:20px;}.cls-2{fill:#f77505;}.cls-3{fill:#fff;}.cls-4{fill:#173140;}</style></defs><title>Learn Homepage 4</title><g id="Layer_3" data-name="Layer 3"><rect class="cls-1" x="5" y="5.67" width="165.34" height="583.66"/><rect class="cls-2" x="170.34" y="5.67" width="171.43" height="583.66"/><rect class="cls-1" x="341.77" y="5.67" width="171.43" height="583.66"/><rect class="cls-2" x="513.19" y="5.67" width="171.43" height="583.66"/><rect class="cls-1" x="684.63" y="5.67" width="171.43" height="583.66"/><rect class="cls-2" x="856.06" y="5.67" width="171.43" height="583.66"/><rect class="cls-1" x="1027.49" y="5.67" width="172.51" height="583.66"/><rect class="cls-3" x="-27.49" y="140.01" width="1254.98" height="135.93"/><circle class="cls-3" cx="87.69" cy="522.58" r="2.74"/><path class="cls-3" d="M99.12,527.69l-8-1-6.73,0-7,1.09-7.8,31.15c0,1.65,2.46,3,5.47,3l26.71-.12c3,0,5.46-1.36,5.45-3Z"/><path class="cls-3" d="M77.36,527.78l-7.8,31.15c0,1.65,2.45,3,5.47,3l9.37-35.2Z"/><path class="cls-3" d="M99.12,527.69l-8-1,10.61,35.12c3,0,5.46-1.36,5.45-3Z"/><path class="cls-3" d="M101.74,561.78,75,561.89l-4.45,23.17a85.36,85.36,0,0,0,17.64,2.25c3,0,10.7-.65,15.76-2.32Z"/><path class="cls-3" d="M69.56,558.93a1.74,1.74,0,0,0,.13.64Z"/><path class="cls-3" d="M69.69,559.57l-2.75,23.36a8.42,8.42,0,0,0,3.79,2.13L75,561.9C72.42,561.91,70.24,560.91,69.69,559.57Z"/><path class="cls-3" d="M107.06,559.41c-.53,1.34-2.71,2.36-5.32,2.37L103.82,585a23.45,23.45,0,0,0,6.23-2.4Z"/><path class="cls-3" d="M107.06,559.41a1.79,1.79,0,0,0,.13-.65Z"/><path class="cls-3" d="M88.19,517.74a11.63,11.63,0,0,0-11.55,10.37l7.51-1.17,7.18,0L99.84,528A11.63,11.63,0,0,0,88.19,517.74Z"/><path class="cls-3" d="M89.2,536H86.69a1,1,0,0,0-1,1l0,4.23a1,1,0,0,0,1,.95h2.51a1,1,0,0,0,1-1l0-4.23A1,1,0,0,0,89.2,536Z"/><path class="cls-3" d="M89.26,548.7H86.75a1,1,0,0,0-1,.95l0,4.23a1,1,0,0,0,1,1h2.51a1,1,0,0,0,1-1l0-4.23A.94.94,0,0,0,89.26,548.7Z"/><path class="cls-3" d="M108.29,557.71a.48.48,0,0,0-.49,0l-6.19,3.58-26.46.12-6.82-3.54a.49.49,0,0,0-.71.43l0,3.9a.48.48,0,0,0,.26.43l6.93,3.59a.43.43,0,0,0,.22.06l26.71-.12a.5.5,0,0,0,.24-.06l6.31-3.65a.5.5,0,0,0,.24-.43l0-3.89A.47.47,0,0,0,108.29,557.71Z"/><path class="cls-3" d="M118.3,551.45a.77.77,0,0,0-.22-.44l-.1-.1L96.31,529.42l-8.07-8a.79.79,0,0,0-1.12,0l-.44.45a.79.79,0,0,0,0,1.12l7.19,7.12-3.73,3.76a1.25,1.25,0,0,0,0,1.76l21.67,21.49a1.25,1.25,0,0,0,1.76,0l4.41-4.45A1.24,1.24,0,0,0,118.3,551.45Zm-4.46-.48-1.48,1.49-1.23-1.22,1.48-1.49Zm-1.57-1.56-1.48,1.5-1.24-1.23,1.48-1.49Zm-1.57-1.56-1.48,1.5-1.41-1.4,1.48-1.49ZM109,546.13l-1.48,1.49-1.3-1.28,1.49-1.49Zm-1.63-1.62-1.48,1.5-1.24-1.23,1.48-1.49ZM105.76,543l-1.48,1.49-1.35-1.34,1.48-1.49Zm-1.69-1.68-1.48,1.5-1.23-1.23,1.47-1.49Zm-1.57-1.55L101,541.22l-1.35-1.34,1.48-1.49Zm-1.69-1.67-1.48,1.49-1.23-1.23,1.48-1.49Zm-1.57-1.56L97.76,538l-1.35-1.34,1.48-1.49Zm-1.68-1.67-1.48,1.49-1.24-1.23,1.48-1.49Zm-3.75-2.39a1,1,0,0,1,1.46.12l.71.71-1.47,1.49L93,533.26Zm-1.88,3.49a1.05,1.05,0,0,1-.13-1.46l.86-.87,1.51,1.5-1.52,1.53Zm1,1,1.53-1.54,1.23,1.23-1.52,1.53Zm1.58,1.56L96.08,537l1.35,1.34-1.52,1.53Zm1.68,1.67,1.52-1.54L99,539.89l-1.52,1.53Zm1.58,1.56,1.52-1.54,1.34,1.34-1.52,1.53Zm1.68,1.67,1.52-1.54,1.24,1.23-1.53,1.53Zm1.57,1.55,1.52-1.53,1.35,1.34-1.52,1.53Zm1.69,1.67,1.52-1.53,1.23,1.22L104,547.88Zm1.57,1.56,1.52-1.53,1.29,1.28-1.52,1.53Zm1.63,1.62,1.52-1.54,1.4,1.39-1.52,1.54Zm1.74,1.72,1.52-1.53,1.24,1.22-1.53,1.54Zm1.57,1.56,1.52-1.53L112,552.8l-1.52,1.54Zm3.71,2.35a1,1,0,0,1-1.46-.12l-.68-.67,1.52-1.53,1.48,1.46Zm2-2-.82.83-1.47-1.46,1.48-1.49.67.67A1,1,0,0,1,115,553.43Z"/><path class="cls-3" d="M88.66,521.8l-7.19-7.12,3.73-3.76a1.25,1.25,0,0,0,0-1.76L63.52,487.67a1.26,1.26,0,0,0-1.76,0l-4.41,4.46a1.22,1.22,0,0,0-.31,1.21.77.77,0,0,0,.22.44L87.1,523.37a.78.78,0,0,0,1.11,0l.45-.45A.79.79,0,0,0,88.66,521.8ZM83.4,508.87a1.05,1.05,0,0,1,.14,1.46l-.86.87-1.51-1.5,1.52-1.53Zm-1.05-1-1.52,1.54-1.23-1.23,1.52-1.53Zm-1.57-1.56-1.52,1.54-1.35-1.34,1.53-1.53ZM79.1,504.6l-1.52,1.54-1.24-1.23,1.52-1.53ZM77.52,503,76,504.58l-1.34-1.34,1.52-1.53Zm-1.68-1.67-1.52,1.54-1.24-1.23,1.52-1.53Zm-1.57-1.55-1.52,1.53L71.4,500l1.52-1.54Zm-1.69-1.67-1.52,1.53-1.23-1.22,1.52-1.54ZM71,496.59l-1.52,1.53-1.29-1.28,1.52-1.53ZM69.38,495l-1.52,1.54-1.4-1.39L68,493.58Zm-1.74-1.72-1.52,1.53-1.24-1.22L66.4,492Zm-1.57-1.56-1.52,1.53L63.31,492l1.52-1.54Zm-3.71-2.35a1,1,0,0,1,1.46.12l.67.67L63,491.66,61.5,490.2Zm-1.88,3.48a1,1,0,0,1-.13-1.45l.82-.83L62.64,492l-1.48,1.49Zm1,1L63,492.34l1.23,1.22-1.48,1.49Zm1.57,1.56,1.48-1.5,1.24,1.23-1.48,1.49ZM64.64,497l1.48-1.5,1.41,1.4-1.48,1.49Zm1.75,1.72,1.47-1.49,1.3,1.28L67.67,500ZM68,500.29l1.48-1.5L70.73,500l-1.48,1.49Zm1.57,1.55,1.48-1.49,1.35,1.34-1.48,1.49Zm1.69,1.67L72.75,502,74,503.25l-1.47,1.49Zm1.57,1.56,1.48-1.49,1.35,1.34-1.48,1.49Zm1.69,1.67L76,505.25l1.23,1.23L75.76,508Zm1.57,1.56,1.48-1.49,1.34,1.34-1.47,1.49ZM77.78,510l1.48-1.49,1.24,1.23L79,511.2Zm2.29,2.27-.71-.71L80.83,510l1.51,1.5-.81.82A1,1,0,0,1,80.07,512.24Z"/><path class="cls-3" d="M88.64,521.85l-.45-.44a.79.79,0,0,0-1.12,0L80,528.6l-3.76-3.73a1.25,1.25,0,0,0-1.76,0L52.94,546.55a1.26,1.26,0,0,0,0,1.76l4.46,4.41a1.22,1.22,0,0,0,1.21.31.77.77,0,0,0,.44-.22l.1-.1L80.65,531l8-8.07A.79.79,0,0,0,88.64,521.85Zm-14.5,4.82a1.05,1.05,0,0,1,1.46-.14l.87.86L75,528.9l-1.53-1.52Zm-1,1.05,1.54,1.52-1.23,1.23L71.88,529Zm-1.56,1.57,1.54,1.52-1.34,1.35-1.53-1.52ZM69.87,531l1.54,1.53-1.23,1.23-1.53-1.52Zm-1.55,1.58,1.53,1.52-1.34,1.34L67,533.89Zm-1.67,1.68,1.53,1.52L67,537l-1.53-1.52Zm-1.56,1.57,1.53,1.52-1.33,1.35-1.54-1.52Zm-1.67,1.69L65,539l-1.23,1.23-1.53-1.52Zm-1.56,1.57,1.53,1.52-1.28,1.29-1.53-1.52Zm-1.62,1.63,1.54,1.52-1.4,1.4-1.53-1.52Zm-1.72,1.74L60.05,544l-1.22,1.24-1.54-1.52ZM57,544l1.53,1.52-1.22,1.24-1.54-1.52Zm-2.35,3.71a1,1,0,0,1,.12-1.46l.67-.67,1.53,1.52-1.46,1.47Zm3.48,1.88a1,1,0,0,1-1.45.13l-.83-.82,1.46-1.47,1.49,1.48Zm1-1-1.5-1.48,1.23-1.23,1.49,1.48ZM60.66,547l-1.5-1.48,1.23-1.24,1.49,1.48Zm1.56-1.57L60.72,544l1.39-1.41,1.5,1.48Zm1.72-1.74-1.49-1.48,1.28-1.29,1.49,1.47Zm1.62-1.63-1.5-1.48,1.23-1.24,1.49,1.48Zm1.55-1.57L65.62,539,67,537.66l1.49,1.48Zm1.67-1.69-1.49-1.48,1.23-1.24L70,537.57Zm1.56-1.57-1.49-1.48,1.34-1.35,1.49,1.48ZM72,535.54l-1.49-1.48,1.23-1.23,1.49,1.48ZM73.57,534l-1.49-1.48,1.34-1.35,1.49,1.48Zm1.67-1.68-1.49-1.48L75,529.57l1.5,1.48ZM77.51,530l-.71.71-1.49-1.48,1.5-1.5.82.81A1,1,0,0,1,77.51,530Z"/><path class="cls-3" d="M122.39,496.49l-4.46-4.41a1.22,1.22,0,0,0-1.21-.31.77.77,0,0,0-.44.22l-.1.1L94.69,513.76l-8,8.07a.79.79,0,0,0,0,1.12l.45.44a.79.79,0,0,0,1.12,0l7.12-7.19,3.76,3.73a1.25,1.25,0,0,0,1.76,0l21.48-21.67A1.25,1.25,0,0,0,122.39,496.49Zm-5.14-1.28a1,1,0,0,1,1.45-.13l.83.82-1.46,1.47-1.49-1.48Zm-1,1,1.49,1.48-1.22,1.23L115,497.46Zm-1.56,1.57,1.49,1.48L115,500.51,113.46,499Zm-1.56,1.57,1.5,1.48-1.4,1.41-1.49-1.48Zm-1.72,1.74,1.49,1.48-1.28,1.29-1.49-1.48Zm-1.62,1.63,1.5,1.48-1.23,1.24L108.56,504Zm-1.55,1.57,1.49,1.48-1.34,1.35-1.49-1.48ZM106.55,506l1.5,1.48-1.23,1.23-1.49-1.48ZM105,507.57l1.49,1.48-1.34,1.35-1.49-1.48Zm-1.67,1.69,1.49,1.47L103.59,512l-1.49-1.48Zm-1.56,1.57,1.49,1.48-1.34,1.35-1.49-1.48Zm-1.67,1.68,1.49,1.48-1.23,1.24-1.49-1.48Zm-2.39,3.75a1,1,0,0,1,.12-1.46l.71-.71,1.49,1.47-1.5,1.51Zm3.48,1.88a1,1,0,0,1-1.45.13l-.87-.86,1.5-1.51,1.53,1.52Zm1-1.06-1.54-1.52,1.23-1.23,1.53,1.52Zm1.56-1.57L102.26,514l1.34-1.35,1.53,1.52Zm1.67-1.68-1.54-1.52,1.23-1.24,1.53,1.52Zm1.56-1.58-1.54-1.52,1.34-1.34,1.53,1.52Zm1.67-1.68-1.54-1.52,1.23-1.24,1.53,1.52Zm1.55-1.57-1.53-1.52,1.34-1.35,1.53,1.52Zm1.67-1.69-1.53-1.52,1.23-1.24,1.53,1.53Zm1.56-1.57L112,504.22l1.28-1.29,1.53,1.52Zm1.62-1.63-1.54-1.52,1.39-1.4,1.54,1.52Zm1.72-1.74-1.53-1.52,1.22-1.24,1.54,1.52Zm1.56-1.57-1.53-1.52,1.22-1.24,1.54,1.52Zm2.23-2.25-.67.68-1.53-1.53,1.45-1.47.87.86A1,1,0,0,1,120.61,498.55Z"/><path class="cls-3" d="M87.68,520.32a2.26,2.26,0,1,0,2.26,2.25A2.26,2.26,0,0,0,87.68,520.32Z"/><circle class="cls-3" cx="87.68" cy="522.58" r="1.42"/><path class="cls-3" d="M88.35,521.74a1.06,1.06,0,0,0-1.5,1.5C87.27,523.66,88.76,522.15,88.35,521.74Z"/><rect class="cls-3" x="575.44" y="525.17" width="4.59" height="8.52" transform="translate(-2.02 2.21) rotate(-0.22)"/><path class="cls-3" d="M580.15,525.3a25.23,25.23,0,0,1-2.44-9.85h-.07c0,.57,0,4.33-2.37,9.87Z"/><polygon class="cls-3" points="580.13 533.47 575.38 533.49 574.42 533.92 574.4 534.61 575.18 536.11 575.27 560.56 580.72 560.54 580.62 536.14 581.2 534.43 581.2 533.73 580.13 533.47"/><polygon class="cls-3" points="580.13 533.47 575.38 533.49 574.42 533.92 574.4 534.61 575.18 536.11 580.62 536.07 581.2 534.43 581.2 533.73 580.13 533.47"/><rect class="cls-3" x="574.92" y="526.27" width="5.68" height="1.92" transform="translate(-2.01 2.21) rotate(-0.22)"/><polygon class="cls-3" points="574.92 528.2 575.51 530.01 580.03 530 580.61 528.18 574.92 528.2"/><rect class="cls-3" x="599.19" y="531" width="7.22" height="13.41" transform="translate(-2.05 2.3) rotate(-0.22)"/><path class="cls-3" d="M602.66,515.6v0Z"/><path class="cls-3" d="M602.76,515.72v0Z"/><path class="cls-3" d="M606.6,531.2c-3.79-8.68-3.86-14.6-3.84-15.48h-.1c0,.88,0,6.8-3.73,15.51Z"/><polygon class="cls-3" points="606.57 544.05 599.1 544.08 597.59 544.76 597.55 545.85 598.78 548.2 598.82 558.78 607.38 558.75 607.34 548.25 608.26 545.56 608.25 544.47 606.57 544.05"/><polygon class="cls-3" points="606.57 544.05 599.1 544.08 597.59 544.76 597.55 545.85 598.78 548.2 607.34 548.14 608.26 545.56 608.25 544.47 606.57 544.05"/><rect class="cls-3" x="598.37" y="532.73" width="8.95" height="3.02" transform="translate(-2.03 2.3) rotate(-0.22)"/><polygon class="cls-3" points="598.38 535.77 599.31 538.62 606.41 538.59 607.32 535.73 598.38 535.77"/><rect id="SVGCleanerId_0" data-name="SVGCleanerId 0" class="cls-3" x="593.41" y="496.74" width="8.56" height="15.89" transform="translate(-1.92 2.29) rotate(-0.22)"/><path id="SVGCleanerId_1" data-name="SVGCleanerId 1" class="cls-3" d="M597.52,478.5v.14A.79.79,0,0,0,597.52,478.5Z"/><path id="SVGCleanerId_2" data-name="SVGCleanerId 2" class="cls-3" d="M597.64,478.64v0Z"/><path id="SVGCleanerId_3" data-name="SVGCleanerId 3" class="cls-3" d="M602.2,497c-4.5-10.28-4.58-17.29-4.56-18.34h-.11c0,1.05,0,8.06-4.42,18.38Z"/><polygon class="cls-3" points="602.16 512.21 593.31 512.24 591.52 513.05 591.48 514.34 592.93 517.12 592.98 529.65 603.12 529.62 603.08 517.18 604.16 513.99 604.15 512.7 602.16 512.21"/><polygon class="cls-3" points="602.16 512.21 593.31 512.24 591.52 513.05 591.48 514.34 592.93 517.12 603.08 517.05 604.16 513.99 604.15 512.7 602.16 512.21"/><rect id="SVGCleanerId_4" data-name="SVGCleanerId 4" class="cls-3" x="592.44" y="498.79" width="10.59" height="3.58" transform="translate(-1.91 2.29) rotate(-0.22)"/><polygon class="cls-3" points="592.45 502.39 593.55 505.77 601.97 505.74 603.05 502.35 592.45 502.39"/><rect id="SVGCleanerId_0-2" data-name="SVGCleanerId 0" class="cls-3" x="593.41" y="496.74" width="8.56" height="15.89" transform="translate(-1.92 2.29) rotate(-0.22)"/><path id="SVGCleanerId_1-2" data-name="SVGCleanerId 1" class="cls-3" d="M597.52,478.5v.14A.79.79,0,0,0,597.52,478.5Z"/><path id="SVGCleanerId_2-2" data-name="SVGCleanerId 2" class="cls-3" d="M597.64,478.64v0Z"/><path id="SVGCleanerId_3-2" data-name="SVGCleanerId 3" class="cls-3" d="M602.2,497c-4.5-10.28-4.58-17.29-4.56-18.34h-.11c0,1.05,0,8.06-4.42,18.38Z"/><polygon class="cls-3" points="602.16 512.21 593.31 512.24 591.52 513.05 591.48 514.34 592.93 517.12 592.98 529.65 603.12 529.62 603.08 517.18 604.16 513.99 604.15 512.7 602.16 512.21"/><polygon class="cls-3" points="602.16 512.21 593.31 512.24 591.52 513.05 591.48 514.34 592.93 517.12 603.08 517.05 604.16 513.99 604.15 512.7 602.16 512.21"/><rect id="SVGCleanerId_4-2" data-name="SVGCleanerId 4" class="cls-3" x="592.44" y="498.79" width="10.59" height="3.58" transform="translate(-1.91 2.29) rotate(-0.22)"/><polygon class="cls-3" points="592.45 502.39 593.55 505.77 601.97 505.74 603.05 502.35 592.45 502.39"/><rect class="cls-3" x="568.6" y="512.98" width="6.2" height="11.51" transform="translate(-1.98 2.19) rotate(-0.22)"/><path class="cls-3" d="M575,513.16c-3.25-7.46-3.31-12.54-3.3-13.3h-.08c0,.76,0,5.84-3.2,13.32Z"/><polygon class="cls-3" points="574.95 524.2 568.53 524.22 567.23 524.8 567.2 525.74 568.25 527.75 568.38 560.78 575.74 560.76 575.61 527.8 576.39 525.49 576.39 524.55 574.95 524.2"/><polygon class="cls-3" points="574.95 524.2 568.53 524.22 567.23 524.8 567.2 525.74 568.25 527.75 575.61 527.7 576.39 525.49 576.39 524.55 574.95 524.2"/><rect class="cls-3" x="567.91" y="514.47" width="7.68" height="2.6" transform="translate(-1.96 2.19) rotate(-0.22)"/><polygon class="cls-3" points="567.91 517.08 568.71 519.53 574.81 519.5 575.59 517.05 567.91 517.08"/><rect class="cls-3" x="561.53" y="531.19" width="4.59" height="8.52" transform="translate(-2.04 2.16) rotate(-0.22)"/><path class="cls-3" d="M566.25,531.32a25.14,25.14,0,0,1-2.45-9.85h-.06a25.35,25.35,0,0,1-2.37,9.87Z"/><polygon class="cls-3" points="566.23 539.49 561.48 539.51 560.52 539.94 560.49 540.64 561.27 542.13 561.37 566.58 566.81 566.56 566.72 542.16 567.3 540.45 567.3 539.75 566.23 539.49"/><polygon class="cls-3" points="566.23 539.49 561.48 539.51 560.52 539.94 560.49 540.64 561.27 542.13 566.72 542.09 567.3 540.45 567.3 539.75 566.23 539.49"/><rect class="cls-3" x="561.01" y="532.29" width="5.69" height="1.92" transform="translate(-2.03 2.16) rotate(-0.22)"/><polygon class="cls-3" points="561.02 534.22 561.61 536.04 566.13 536.02 566.7 534.2 561.02 534.22"/><rect class="cls-3" x="575.29" y="536.59" width="26.61" height="23.48" transform="translate(-2.09 2.25) rotate(-0.22)"/><path class="cls-3" d="M581.9,541.35a.42.42,0,0,0-.42.44v1.91a.44.44,0,0,0,.43.44.44.44,0,0,0,.42-.44v-1.92A.42.42,0,0,0,581.9,541.35Z"/><path class="cls-3" d="M584.35,541.34a.43.43,0,0,0-.42.44v1.92a.43.43,0,1,0,.85,0v-1.92A.43.43,0,0,0,584.35,541.34Z"/><path class="cls-3" d="M583.12,541.36a.44.44,0,0,0-.42.44v1.92a.42.42,0,0,0,.42.43.43.43,0,0,0,.42-.44v-1.92A.43.43,0,0,0,583.12,541.36Z"/><path class="cls-3" d="M592.47,541.31a.43.43,0,0,0-.42.44v1.91a.42.42,0,0,0,.42.43.41.41,0,0,0,.42-.43v-1.92A.43.43,0,0,0,592.47,541.31Z"/><path class="cls-3" d="M594.93,541.3a.43.43,0,0,0-.42.44v1.91a.42.42,0,1,0,.84,0v-1.92A.43.43,0,0,0,594.93,541.3Z"/><path class="cls-3" d="M593.7,541.32a.43.43,0,0,0-.42.44v1.92a.43.43,0,0,0,.43.43.43.43,0,0,0,.42-.44v-1.92A.43.43,0,0,0,593.7,541.32Z"/><path class="cls-3" d="M587.8,541.33a.43.43,0,0,0-.42.43v1.92a.44.44,0,0,0,.43.43.42.42,0,0,0,.42-.43v-1.92A.42.42,0,0,0,587.8,541.33Z"/><path class="cls-3" d="M589,541.34a.43.43,0,0,0-.42.44v1.91a.42.42,0,1,0,.84,0v-1.92A.43.43,0,0,0,589,541.34Z"/><path class="cls-3" d="M581.92,547.52a.42.42,0,0,0-.42.43v1.92a.42.42,0,1,0,.84,0V548A.42.42,0,0,0,581.92,547.52Z"/><path class="cls-3" d="M584.38,547.51a.42.42,0,0,0-.42.43v1.92a.42.42,0,1,0,.84,0v-1.92A.42.42,0,0,0,584.38,547.51Z"/><path class="cls-3" d="M583.14,547.53a.43.43,0,0,0-.42.44v1.91a.43.43,0,0,0,.42.44.43.43,0,0,0,.42-.44V548A.43.43,0,0,0,583.14,547.53Z"/><path class="cls-3" d="M592.5,547.48a.42.42,0,0,0-.42.43v1.92a.43.43,0,1,0,.85,0v-1.92A.42.42,0,0,0,592.5,547.48Z"/><path class="cls-3" d="M595,547.47a.43.43,0,0,0-.43.43v1.92a.43.43,0,1,0,.85,0V547.9A.42.42,0,0,0,595,547.47Z"/><path class="cls-3" d="M593.72,547.49a.43.43,0,0,0-.42.43v1.92a.42.42,0,0,0,.42.43.42.42,0,0,0,.42-.43v-1.92A.42.42,0,0,0,593.72,547.49Z"/><path class="cls-3" d="M587.82,547.5a.42.42,0,0,0-.42.43v1.92a.42.42,0,0,0,.42.43.43.43,0,0,0,.42-.43v-1.92A.44.44,0,0,0,587.82,547.5Z"/><path class="cls-3" d="M589.05,547.51a.43.43,0,0,0-.43.43v1.92a.43.43,0,1,0,.85,0v-1.92A.42.42,0,0,0,589.05,547.51Z"/><rect class="cls-3" x="596.83" y="529.16" width="5.04" height="7.49" transform="translate(-2.03 2.29) rotate(-0.22)"/><rect class="cls-3" x="596.82" y="528.77" width="5.04" height="0.4" transform="translate(-2.01 2.29) rotate(-0.22)"/><rect class="cls-3" x="601.41" y="527.9" width="0.4" height="1.23" transform="translate(-2.01 2.3) rotate(-0.22)"/><rect class="cls-3" x="600.63" y="527.9" width="0.56" height="1.23" transform="translate(-2.01 2.3) rotate(-0.22)"/><rect class="cls-3" x="599.26" y="527.91" width="0.95" height="1.23" transform="translate(-2.01 2.29) rotate(-0.22)"/><rect class="cls-3" x="597.78" y="527.91" width="0.95" height="1.23" transform="translate(-2.01 2.29) rotate(-0.22)"/><rect class="cls-3" x="575.24" y="529.25" width="5.04" height="7.49" transform="translate(-2.03 2.21) rotate(-0.22)"/><rect class="cls-3" x="575.22" y="528.85" width="5.04" height="0.4" transform="translate(-2.02 2.21) rotate(-0.22)"/><rect class="cls-3" x="575.27" y="528" width="0.4" height="1.23" transform="translate(-2.01 2.2) rotate(-0.22)"/><rect class="cls-3" x="575.88" y="528" width="0.56" height="1.23" transform="translate(-2.01 2.2) rotate(-0.22)"/><rect class="cls-3" x="576.87" y="527.99" width="0.94" height="1.23" transform="translate(-2.01 2.21) rotate(-0.22)"/><rect class="cls-3" x="578.35" y="527.99" width="0.94" height="1.23" transform="translate(-2.01 2.21) rotate(-0.22)"/><rect class="cls-3" x="581.49" y="525.39" width="13.82" height="11.24" transform="translate(-2.02 2.25) rotate(-0.22)"/><polygon class="cls-3" points="588.48 511.36 578.98 525.42 598.08 525.35 588.48 511.36"/><polygon class="cls-3" points="578.98 525.33 579.74 528.21 579.77 536.67 581.76 536.66 581.72 525.32 578.98 525.33"/><polygon class="cls-3" points="595.29 525.27 595.34 536.61 597.33 536.6 597.29 528.14 598.03 525.26 595.29 525.27"/><rect class="cls-3" x="609.9" y="509.27" width="11.94" height="10.87" transform="translate(-1.96 2.35) rotate(-0.22)"/><path class="cls-3" d="M608.33,502.84s.16,7.39,1.55,7.38l11.94,0c1.52,0,1.49-7.4,1.49-7.4Z"/><path class="cls-3" d="M615.71,494.78s-7.24,8.19-8.57,8.19l17.42-.06C623,502.91,615.71,494.78,615.71,494.78Z"/><polygon class="cls-3" points="608.06 519.05 606.27 520.35 606.29 525.52 608.4 531.09 610.18 529.79 608.06 519.05"/><rect class="cls-3" x="607.84" y="529.47" width="16.41" height="23.28" transform="translate(-2.06 2.36) rotate(-0.22)"/><rect class="cls-3" x="607.84" y="529.49" width="2.29" height="23.28" transform="translate(-2.06 2.33) rotate(-0.22)"/><path class="cls-3" d="M625.58,561.66l-.81-10.32a.15.15,0,0,0-.15-.13l-16.42.06a.15.15,0,0,0-.14.15l0,10.34a.14.14,0,0,0,.14.14l17.2-.06h0a.15.15,0,0,0,.14-.15Z"/><polygon class="cls-3" points="608.06 519.05 608.08 524.22 610.18 529.79 624.16 529.73 626.23 524.15 626.21 518.98 608.06 519.05"/><polygon class="cls-3" points="607.78 518.19 606.27 519.33 606.27 520.36 609.3 518.18 607.78 518.19"/><rect class="cls-3" x="608.03" y="518.15" width="18.18" height="0.87" transform="translate(-1.97 2.36) rotate(-0.22)"/><polygon class="cls-3" points="607.68 551.75 606.68 550.82 606.68 549.43 605.09 549.44 605.08 547.38 603.22 547.39 603.22 545.4 601.43 545.41 601.42 543.55 599.83 543.55 599.82 541.5 597.86 541.51 597.87 543.56 596.28 543.57 596.29 545.42 594.5 545.43 594.5 547.42 592.65 547.43 592.65 549.48 591.06 549.49 591.07 550.88 590.08 551.81 584.11 551.84 584.14 560 613.68 559.88 613.65 551.72 607.68 551.75"/><rect class="cls-3" x="585.92" y="554.3" width="25.86" height="8.26" transform="translate(-2.13 2.29) rotate(-0.22)"/><rect class="cls-3" x="565.24" y="559.97" width="62.22" height="4.77" transform="translate(-2.14 2.28) rotate(-0.22)"/><rect class="cls-3" x="611.84" y="562.48" width="16.12" height="20.79" transform="translate(-2.18 2.37) rotate(-0.22)"/><rect class="cls-3" x="612.9" y="563.51" width="13.99" height="18.71" transform="translate(-2.18 2.37) rotate(-0.22)"/><path class="cls-3" d="M615.5,566.89c-.38,0-.68.21-.68.47v2.11c0,.27.31.48.69.48s.68-.22.68-.48v-2.11C616.18,567.1,615.87,566.88,615.5,566.89Z"/><path class="cls-3" d="M617,566.9c-.37,0-.68.22-.68.48v2.11c0,.26.31.47.68.47s.68-.21.68-.48v-2.11C617.7,567.11,617.4,566.9,617,566.9Z"/><path class="cls-3" d="M617,566.67a1,1,0,0,0-.75.31,1,1,0,0,0-.78-.33.83.83,0,0,0-.91.72v2.11c0,.39.41.7.92.7a1,1,0,0,0,.75-.31,1,1,0,0,0,.77.32c.52,0,.92-.31.91-.71v-2.11C617.94,567,617.53,566.67,617,566.67Zm-1.07,2.8c0,.11-.19.24-.44.24s-.45-.12-.45-.24v-2.11c0-.11.19-.24.45-.24s.44.13.45.24Zm1.53,0c0,.12-.19.25-.45.25s-.45-.13-.45-.24v-2.11c0-.12.19-.25.44-.25s.45.13.45.24Z"/><path class="cls-3" d="M618.74,566.8a3.19,3.19,0,0,0-2.53-1.24,2.56,2.56,0,0,0-2.31,1.29.24.24,0,0,0,.21.34.23.23,0,0,0,.2-.13,2.14,2.14,0,0,1,1.9-1,2.77,2.77,0,0,1,2.16,1,.23.23,0,0,0,.32.06A.24.24,0,0,0,618.74,566.8Z"/><path class="cls-3" d="M622.5,566.86c-.38,0-.68.21-.68.48v2.11c0,.26.3.47.68.47s.68-.22.68-.48v-2.11C623.18,567.07,622.87,566.86,622.5,566.86Z"/><path class="cls-3" d="M624,566.87c-.37,0-.68.22-.68.48v2.11c0,.26.31.48.68.47s.68-.21.68-.47v-2.11C624.7,567.08,624.4,566.87,624,566.87Z"/><path class="cls-3" d="M624,566.64a1,1,0,0,0-.75.31,1,1,0,0,0-.77-.32c-.52,0-.92.31-.91.71v2.11a.82.82,0,0,0,.92.7,1,1,0,0,0,.75-.3,1,1,0,0,0,.77.32.83.83,0,0,0,.92-.71v-2.11A.83.83,0,0,0,624,566.64Zm-1.07,2.8c0,.12-.19.25-.44.25s-.45-.13-.45-.24v-2.11c0-.12.19-.25.45-.25s.45.13.45.24Zm1.53,0c0,.11-.19.24-.45.24s-.45-.13-.45-.24v-2.11c0-.12.19-.24.44-.25s.45.13.45.25Z"/><path class="cls-3" d="M625.75,566.78a3.21,3.21,0,0,0-2.54-1.24,2.56,2.56,0,0,0-2.31,1.28.24.24,0,0,0,.1.32l.11,0a.23.23,0,0,0,.2-.13,2.16,2.16,0,0,1,1.9-1,2.78,2.78,0,0,1,2.16,1,.23.23,0,0,0,.32.06A.24.24,0,0,0,625.75,566.78Z"/><rect class="cls-3" x="569.86" y="562.64" width="16.12" height="20.79" transform="translate(-2.18 2.21) rotate(-0.22)"/><rect class="cls-3" x="570.93" y="563.67" width="13.99" height="18.71" transform="translate(-2.18 2.21) rotate(-0.22)"/><path class="cls-3" d="M573.52,567.05c-.38,0-.68.21-.68.47v2.11c0,.27.3.48.68.48s.68-.22.68-.48v-2.11C574.2,567.26,573.89,567,573.52,567.05Z"/><path class="cls-3" d="M575,567.06c-.37,0-.68.22-.67.48v2.11c0,.26.31.47.69.47s.67-.21.67-.48v-2.11C575.72,567.27,575.42,567.06,575,567.06Z"/><path class="cls-3" d="M575,566.83a1.06,1.06,0,0,1-1.52,0c-.52,0-.92.32-.91.72v2.11a.84.84,0,0,0,.92.7,1.09,1.09,0,0,1,1.53,0,.82.82,0,0,0,.91-.71v-2.11C576,567.13,575.55,566.83,575,566.83Zm-1.06,2.8c0,.11-.2.24-.45.24s-.45-.12-.45-.24v-2.11c0-.11.2-.24.45-.24s.45.13.45.24Zm1.52,0c0,.12-.19.25-.45.25s-.44-.13-.44-.24v-2.11c0-.12.19-.25.44-.25s.45.13.45.24Z"/><path class="cls-3" d="M576.77,567a3.25,3.25,0,0,0-2.54-1.24,2.58,2.58,0,0,0-2.31,1.29.24.24,0,0,0,.21.34.24.24,0,0,0,.21-.13,2.09,2.09,0,0,1,1.89-1,2.75,2.75,0,0,1,2.16,1,.23.23,0,0,0,.32.06A.25.25,0,0,0,576.77,567Z"/><path class="cls-3" d="M580.52,567c-.38,0-.68.22-.68.48v2.11c0,.26.3.47.68.47s.68-.22.68-.48v-2.11C581.2,567.23,580.89,567,580.52,567Z"/><path class="cls-3" d="M582,567c-.37,0-.68.22-.67.48v2.11c0,.26.31.48.69.47s.68-.21.67-.47v-2.11C582.73,567.24,582.42,567,582,567Z"/><path class="cls-3" d="M582,566.8a1.07,1.07,0,0,1-1.52,0c-.51,0-.92.31-.91.71v2.11a.82.82,0,0,0,.92.7,1,1,0,0,0,.75-.3,1,1,0,0,0,.78.32.83.83,0,0,0,.91-.71v-2.11A.83.83,0,0,0,582,566.8ZM581,569.6c0,.12-.2.25-.45.25s-.45-.13-.45-.24V567.5c0-.12.2-.25.45-.25s.45.13.45.24Zm1.52,0c0,.11-.19.24-.44.24s-.45-.13-.45-.24v-2.11c0-.11.19-.24.45-.25s.44.13.44.25Z"/><path class="cls-3" d="M583.77,566.94a3.21,3.21,0,0,0-2.54-1.24,2.56,2.56,0,0,0-2.31,1.28.24.24,0,0,0,.11.32l.1,0a.24.24,0,0,0,.21-.13,2.11,2.11,0,0,1,1.89-1,2.78,2.78,0,0,1,2.16,1,.23.23,0,1,0,.38-.26Z"/><rect class="cls-3" x="585.98" y="562.56" width="25.86" height="20.79" transform="translate(-2.18 2.29) rotate(-0.22)"/><rect class="cls-3" x="587.22" y="567.77" width="1.79" height="3.48" transform="translate(-2.17 2.25) rotate(-0.22)"/><rect class="cls-3" x="587.62" y="568.54" width="0.99" height="1.93" transform="translate(-2.17 2.25) rotate(-0.22)"/><rect class="cls-3" x="587.25" y="576.21" width="1.79" height="3.48" transform="translate(-2.2 2.25) rotate(-0.22)"/><rect class="cls-3" x="587.66" y="576.99" width="0.99" height="1.93" transform="translate(-2.2 2.25) rotate(-0.22)"/><rect class="cls-3" x="573.38" y="576.26" width="1.79" height="3.48" transform="translate(-2.2 2.2) rotate(-0.22)"/><rect class="cls-3" x="573.78" y="577.04" width="0.99" height="1.93" transform="translate(-2.2 2.2) rotate(-0.22)"/><rect class="cls-3" x="580.43" y="576.24" width="1.79" height="3.48" transform="translate(-2.2 2.22) rotate(-0.22)"/><rect class="cls-3" x="580.83" y="577.01" width="0.99" height="1.93" transform="translate(-2.2 2.22) rotate(-0.22)"/><rect class="cls-3" x="608.85" y="567.69" width="1.79" height="3.48" transform="translate(-2.17 2.33) rotate(-0.22)"/><rect class="cls-3" x="609.24" y="568.46" width="1" height="1.93" transform="translate(-2.17 2.33) rotate(-0.22)"/><rect class="cls-3" x="608.88" y="576.13" width="1.79" height="3.48" transform="translate(-2.2 2.33) rotate(-0.22)"/><rect class="cls-3" x="609.27" y="576.9" width="1" height="1.93" transform="translate(-2.2 2.33) rotate(-0.22)"/><rect class="cls-3" x="622.36" y="576.08" width="1.79" height="3.48" transform="translate(-2.2 2.38) rotate(-0.22)"/><rect class="cls-3" x="622.75" y="576.85" width="1" height="1.93" transform="translate(-2.2 2.38) rotate(-0.22)"/><rect class="cls-3" x="615.55" y="576.1" width="1.79" height="3.48" transform="translate(-2.2 2.36) rotate(-0.22)"/><rect class="cls-3" x="615.94" y="576.88" width="0.99" height="1.93" transform="translate(-2.2 2.36) rotate(-0.22)"/><path class="cls-3" d="M608.85,565.28l0-5.15-19.87.08,0,5.15c0,1.29,2,2.45,2,2.45l0,5.37-1.23,1.5a1.74,1.74,0,0,0-.55,1.29l0,7.37,19.37-.08,0-7.36a1.75,1.75,0,0,0-.55-1.29l-1.25-1.49,0-5.37S608.85,566.57,608.85,565.28Z"/><path class="cls-3" d="M589,560.21l0,5.15c0,1.29,2,2.45,2,2.45l0,5.37-1.23,1.5a1.74,1.74,0,0,0-.55,1.29l0,7.37,9.65,0-.09-23.13-9.9,0Z"/><path class="cls-3" d="M596.29,562.43v4h1.09a1.85,1.85,0,0,1,3.17,0h1.09v-4Z"/><path class="cls-3" d="M596.29,562.43v4h1.09a1.59,1.59,0,0,1,3.17,0h1.09v-4Z"/><path class="cls-3" d="M604.51,560.15l0,5.15c0,1.29,2.05,2.45,2.05,2.45h0s2-1.18,2-2.47l0-5.15Z"/><path class="cls-3" d="M604.73,560.15l0,5.15c0,1.29,2,2.45,2,2.45h0s2-1.18,2-2.47l0-5.15Z"/><path class="cls-3" d="M589.17,560.21l0,5.14c0,1.3,2,2.46,2,2.46h0s2-1.18,2-2.47l0-5.15Z"/><path class="cls-3" d="M589,560.21l0,5.15c0,1.29,2,2.45,2,2.45h0s2-1.18,2-2.47l0-5.15Z"/><rect class="cls-3" x="603.13" y="567.91" width="0.63" height="1.59" transform="translate(-2.17 2.31) rotate(-0.22)"/><rect class="cls-3" x="594.05" y="567.95" width="0.63" height="1.59" transform="translate(-2.17 2.27) rotate(-0.22)"/><rect class="cls-3" x="596.81" y="567.23" width="4.21" height="4.48" transform="translate(-2.17 2.29) rotate(-0.22)"/><rect class="cls-3" x="596.81" y="567.73" width="3.98" height="3.98" transform="translate(-2.17 2.29) rotate(-0.22)"/><path class="cls-3" d="M589,560.21v2.35l19.87-.07v-2.36Z"/><path class="cls-3" d="M599,573.75h-.16a3.87,3.87,0,0,0-3.85,3.88l0,5.73H603l0-5.75A3.85,3.85,0,0,0,599,573.75Z"/><polygon class="cls-3" points="598.81 545.78 593.34 554.32 604.34 554.28 598.81 545.78"/><path class="cls-3" d="M598.78,545.32a.58.58,0,0,0-.58.58v2.79a.59.59,0,0,0,1.17,0v-2.79A.58.58,0,0,0,598.78,545.32Z"/><path class="cls-3" d="M600.63,547.58a.58.58,0,0,0-.58.58V551a.58.58,0,0,0,.58.58.6.6,0,0,0,.58-.59v-2.78A.57.57,0,0,0,600.63,547.58Z"/><path class="cls-3" d="M602.09,549.75a.6.6,0,0,0-.58.59v2.78a.57.57,0,0,0,.58.58.58.58,0,0,0,.58-.58v-2.79A.58.58,0,0,0,602.09,549.75Z"/><path class="cls-3" d="M603.55,552.05a.57.57,0,0,0-.57.58v2.79a.58.58,0,0,0,1.16,0v-2.79A.58.58,0,0,0,603.55,552.05Z"/><path class="cls-3" d="M597,547.59a.58.58,0,0,0-.58.58V551a.58.58,0,1,0,1.16,0v-2.79A.58.58,0,0,0,597,547.59Z"/><path class="cls-3" d="M595.56,549.78a.58.58,0,0,0-.58.58v2.79a.58.58,0,1,0,1.16,0v-2.78A.58.58,0,0,0,595.56,549.78Z"/><path class="cls-3" d="M594.16,552.09a.58.58,0,0,0-.58.58v2.79a.59.59,0,0,0,1.17,0v-2.79A.58.58,0,0,0,594.16,552.09Z"/><path class="cls-3" d="M591.8,529.51l-6.85,0c-.13,0-.23,0-.23.06v.28s.11.06.24.06l6.84,0c.13,0,.23,0,.23-.07v-.27S591.93,529.51,591.8,529.51Z"/><path class="cls-3" d="M586.5,533.31a.64.64,0,0,0-.63.64v2.81a.64.64,0,0,0,1.27,0v-2.81A.64.64,0,0,0,586.5,533.31Z"/><path class="cls-3" d="M590.2,533.29a.64.64,0,0,0-.63.64v2.81a.63.63,0,0,0,1.26,0v-2.81A.64.64,0,0,0,590.2,533.29Z"/><path class="cls-3" d="M588.34,533.15a.64.64,0,0,0-.63.64v2.81a.63.63,0,0,0,.63.63.64.64,0,0,0,.64-.64v-2.81A.64.64,0,0,0,588.34,533.15Z"/><path class="cls-3" d="M591.82,536.72l-6.84,0a.23.23,0,0,0-.23.23v.94a.23.23,0,0,0,.24.23l6.84,0a.23.23,0,0,0,.23-.23V537A.23.23,0,0,0,591.82,536.72Z"/><path class="cls-3" d="M567.6,582.81l0,3.69a62.21,62.21,0,0,0,63.26-1.67v-2.26l-63.27.24Z"/><rect class="cls-3" x="629.3" y="558.16" width="0.7" height="2.79" transform="translate(-2.13 2.41) rotate(-0.22)"/><rect class="cls-3" x="629.34" y="567.81" width="0.7" height="2.79" transform="translate(-2.17 2.41) rotate(-0.22)"/><rect class="cls-3" x="629.37" y="577.66" width="0.7" height="2.79" transform="translate(-2.21 2.41) rotate(-0.22)"/><polygon class="cls-3" points="626.95 547.32 626.97 550.25 637.26 550.22 637.27 547.28 626.95 547.32"/><path class="cls-3" d="M635.39,547.59l-3.24-5.38a.17.17,0,0,0-.13-.07h0a.17.17,0,0,0-.13.07l-3.07,5.41a.16.16,0,0,0,0,.15.17.17,0,0,0,.13.07l6.32,0a.15.15,0,0,0,.13-.07A.16.16,0,0,0,635.39,547.59Z"/><rect class="cls-3" x="562.85" y="558.41" width="0.7" height="2.79" transform="translate(-2.13 2.15) rotate(-0.22)"/><rect class="cls-3" x="562.89" y="568.07" width="0.7" height="2.79" transform="translate(-2.17 2.15) rotate(-0.22)"/><rect class="cls-3" x="562.92" y="577.92" width="0.7" height="2.79" transform="translate(-2.21 2.15) rotate(-0.22)"/><polygon class="cls-3" points="560.5 547.58 560.52 550.51 570.82 550.47 570.82 547.54 560.5 547.58"/><path class="cls-3" d="M568.94,547.84l-3.24-5.38a.17.17,0,0,0-.13-.07h0a.14.14,0,0,0-.13.08l-3.07,5.4a.14.14,0,0,0,0,.15.17.17,0,0,0,.13.07l6.32,0A.16.16,0,0,0,569,548,.16.16,0,0,0,568.94,547.84Z"/><path class="cls-3" d="M637.26,550.21l-10.29,0,.46,1.84-.32,30.44,7.21,0c1-.75,2-1.52,3-2.32l-.51-28.13Z"/><path class="cls-3" d="M627.1,583.28v-.75h-.25a.14.14,0,0,0-.15.13l-.41,4.77a62.69,62.69,0,0,0,7-4.18l-6.17,0Z"/><path class="cls-3" d="M627.1,582.53v.75l6.17,0,1.05-.75Z"/><path class="cls-3" d="M570.82,550.47l-10.3,0,.46,1.84L560.66,582c.36.27.72.52,1.08.77l9.19,0-.56-30.44Z"/><path class="cls-3" d="M571.32,582.88a.15.15,0,0,0-.15-.13h-.24v.74l-8.14,0a61.16,61.16,0,0,0,9,5.11.19.19,0,0,0,0-.08Z"/><path class="cls-3" d="M570.93,582.75l-9.19,0,1.06.75,8.14,0Z"/><path class="cls-3" d="M589.18,582.36V584c5.72,6,23.78,5.82,33.31,5.25,1.37-.59,2.72-1.25,4-1.93C619.52,587.93,595.88,589.42,589.18,582.36Z"/><path class="cls-3" d="M589.19,584l0,9.73a63.19,63.19,0,0,0,8.86.6,62.1,62.1,0,0,0,24.42-5.08C613,589.82,594.91,590,589.19,584Z"/><path class="cls-3" d="M578.71,585.51l0,5.82c.6.19,1.2.38,1.8.55l0-6.38Z"/><polygon class="cls-3" points="579 577.22 573.64 588.64 585.11 588.6 579 577.22"/><polygon class="cls-3" points="579.08 575.46 575.1 583.95 583.62 583.91 579.08 575.46"/><polygon class="cls-3" points="579.12 573.05 575.9 579.91 582.78 579.88 579.12 573.05"/><circle class="cls-3" cx="427.67" cy="477.35" r="1.66"/><circle class="cls-3" cx="427.43" cy="574.16" r="1.66"/><circle class="cls-3" cx="475.82" cy="525.88" r="1.66"/><circle class="cls-3" cx="379.14" cy="525.64" r="1.66"/><circle class="cls-3" cx="461.84" cy="491.67" r="1.66"/><circle class="cls-3" cx="393.21" cy="559.94" r="1.66"/><circle class="cls-3" cx="461.58" cy="560.02" r="1.66"/><circle class="cls-3" cx="393.38" cy="491.5" r="1.66"/><circle class="cls-3" cx="467.66" cy="498.75" r="1.66"/><circle class="cls-3" cx="387.38" cy="552.87" r="1.66"/><circle class="cls-3" cx="454.51" cy="565.84" r="1.66"/><circle class="cls-3" cx="400.46" cy="485.68" r="1.66"/><circle class="cls-3" cx="472.02" cy="506.79" r="1.66"/><circle class="cls-3" cx="383" cy="544.84" r="1.66"/><circle class="cls-3" cx="446.48" cy="570.2" r="1.66"/><circle class="cls-3" cx="408.48" cy="481.31" r="1.66"/><circle class="cls-3" cx="474.95" cy="516.29" r="1.66"/><circle class="cls-3" cx="380.04" cy="535.37" r="1.66"/><circle class="cls-3" cx="437" cy="573.15" r="1.66"/><circle class="cls-3" cx="417.96" cy="478.36" r="1.66"/><circle class="cls-3" cx="474.76" cy="536.15" r="1.66"/><circle class="cls-3" cx="380.19" cy="515.48" r="1.66"/><circle class="cls-3" cx="417.17" cy="572.97" r="1.66"/><circle class="cls-3" cx="437.81" cy="478.52" r="1.66"/><circle class="cls-3" cx="471.96" cy="544.86" r="1.66"/><circle class="cls-3" cx="382.96" cy="506.76" r="1.66"/><circle class="cls-3" cx="408.46" cy="570.19" r="1.66"/><circle class="cls-3" cx="446.51" cy="481.31" r="1.66"/><circle class="cls-3" cx="467.12" cy="553.54" r="1.66"/><circle class="cls-3" cx="387.78" cy="498.07" r="1.66"/><circle class="cls-3" cx="399.8" cy="565.37" r="1.66"/><circle class="cls-3" cx="455.19" cy="486.13" r="1.66"/><path class="cls-3" d="M456.83,496.49a41.49,41.49,0,1,0,12.08,29.37A41.22,41.22,0,0,0,456.83,496.49Zm-29.51,70.23a41,41,0,1,1,41.06-40.86A41,41,0,0,1,427.32,566.72Z"/><path class="cls-3" d="M459,494.29a44.61,44.61,0,1,0,13,31.58A44.31,44.31,0,0,0,459,494.29ZM427.31,570a44.22,44.22,0,1,1,44.32-44.1A44.27,44.27,0,0,1,427.31,570Z"/><path class="cls-3" d="M428.35,479a.19.19,0,0,0-.26.09l-2.44,5.12-3.11-5a.2.2,0,0,0-.21-.08.19.19,0,0,0-.16.16l-.74,5.16L418,480a.21.21,0,0,0-.21-.07.18.18,0,0,0-.14.17l-.62,5.33-3.91-4.15a.2.2,0,0,0-.22-.05.18.18,0,0,0-.12.19l.23,5-3.55-3.93a.19.19,0,0,0-.23-.05.2.2,0,0,0-.12.2l.61,5.34-4.18-3.47a.21.21,0,0,0-.33.2l1.19,5.53a.2.2,0,0,0,.2.16h0a.2.2,0,0,0,.15-.24l-1.06-5,4.12,3.41a.21.21,0,0,0,.23,0,.19.19,0,0,0,.1-.2l-.6-5.2,3.51,3.88a.21.21,0,0,0,.22.05.21.21,0,0,0,.13-.2l-.24-5,3.83,4.08a.23.23,0,0,0,.21,0,.2.2,0,0,0,.14-.17l.6-5.27,3.39,4.37a.2.2,0,0,0,.35-.1l.73-5.08,3,4.84a.19.19,0,0,0,.18.09.2.2,0,0,0,.17-.11l2.58-5.45A.19.19,0,0,0,428.35,479Z"/><path class="cls-3" d="M406.72,490.21l-5.05-3.35a.2.2,0,0,0-.22,0,.19.19,0,0,0-.08.21l1.44,5.14-5.08-2.31a.2.2,0,0,0-.27.26l1.94,5L394,493.32a.2.2,0,0,0-.22.06.21.21,0,0,0,0,.23l2.55,4.33-4.84-1.77a.19.19,0,0,0-.22.06.18.18,0,0,0,0,.23l2.9,4.4-5.33-1.11a.18.18,0,0,0-.21.09.2.2,0,0,0,0,.23l3.63,4.34a.2.2,0,0,0,.16.07.18.18,0,0,0,.12-.05.19.19,0,0,0,0-.28l-3.27-3.9,5.25,1.1a.2.2,0,0,0,.2-.09.18.18,0,0,0,0-.22l-2.84-4.29,4.8,1.76a.21.21,0,0,0,.22-.06.21.21,0,0,0,0-.23l-2.56-4.35,5.29,1.81a.19.19,0,0,0,.21-.05.2.2,0,0,0,0-.21L398,490.48l5,2.28a.18.18,0,0,0,.21,0,.19.19,0,0,0,.06-.2l-1.41-5,4.6,3.05a.19.19,0,0,0,.27-.05A.2.2,0,0,0,406.72,490.21Z"/><path class="cls-3" d="M392.41,504.15l-6.25-.18a.21.21,0,0,0-.19.13.2.2,0,0,0,0,.22l3.89,3.47-5.52.4a.22.22,0,0,0-.18.14.2.2,0,0,0,.06.21l4.1,3.46-5.62,1a.22.22,0,0,0-.16.16.2.2,0,0,0,.09.21l4.32,2.58-5.25.79a.21.21,0,0,0-.06.38l4.78,2.43L381,521.07a.21.21,0,0,0-.15.19.21.21,0,0,0,.13.19l5.35,2,.07,0a.21.21,0,0,0,.19-.13.2.2,0,0,0-.12-.26l-4.78-1.8,5.37-1.53a.22.22,0,0,0,.14-.17.2.2,0,0,0-.11-.2L382.43,517l5.18-.78a.19.19,0,0,0,.16-.16.2.2,0,0,0-.09-.21l-4.33-2.59,5.51-.94a.2.2,0,0,0,.16-.15.19.19,0,0,0-.06-.2l-4.06-3.42,5.51-.41a.19.19,0,0,0,.18-.13.2.2,0,0,0-.06-.21l-3.83-3.42,5.7.16h0a.22.22,0,0,0,.21-.19A.21.21,0,0,0,392.41,504.15Z"/><path class="cls-3" d="M390,542.68l-5,.54,3.83-3.74a.22.22,0,0,0,0-.22.18.18,0,0,0-.19-.12l-5.24,0,4.23-3.08a.21.21,0,0,0,.08-.22.2.2,0,0,0-.18-.14l-5-.3,4.45-3.38a.2.2,0,0,0,.07-.2.17.17,0,0,0-.15-.15l-5.17-1.16,4.7-2.91a.2.2,0,0,0,.09-.2.19.19,0,0,0-.15-.16l-5-1.26,5.13-2.49a.2.2,0,1,0-.18-.36l-5.62,2.73a.21.21,0,0,0-.11.2.2.2,0,0,0,.15.18l5.06,1.27-4.72,2.91a.22.22,0,0,0-.09.21.19.19,0,0,0,.15.16l5.24,1.17-4.54,3.45a.2.2,0,0,0,.11.36l5,.3-4.28,3.12a.19.19,0,0,0-.07.22.2.2,0,0,0,.19.14l5.37-.05-3.89,3.8a.2.2,0,0,0,0,.23.19.19,0,0,0,.18.11h0l5.63-.6a.2.2,0,0,0,.18-.22A.22.22,0,0,0,390,542.68Z"/><path class="cls-3" d="M402.68,558.39a.21.21,0,0,0-.28-.06l-4.22,2.84,1.64-5.1a.21.21,0,0,0-.06-.21.2.2,0,0,0-.22,0L395,558.21l2.25-4.59a.2.2,0,0,0,0-.22.22.22,0,0,0-.23,0l-4.59,2.09,2.36-5.07a.2.2,0,0,0-.24-.27l-5.12,1.38,2.81-4.76a.22.22,0,0,0,0-.21.2.2,0,0,0-.2-.08l-5.16.87,3.52-4.25a.2.2,0,1,0-.31-.25l-3.86,4.66a.21.21,0,0,0,0,.23.21.21,0,0,0,.21.1l5.26-.9-2.83,4.81a.21.21,0,0,0,0,.23.21.21,0,0,0,.21.07l5.17-1.41-2.4,5.17a.2.2,0,0,0,0,.23.19.19,0,0,0,.22,0l4.58-2.08-2.28,4.63a.2.2,0,0,0,0,.23.2.2,0,0,0,.23,0l4.68-2.43-1.67,5.19a.19.19,0,0,0,.07.22.25.25,0,0,0,.12,0,.15.15,0,0,0,.11,0l4.7-3.15A.21.21,0,0,0,402.68,558.39Z"/><path class="cls-3" d="M420.86,566.29a.2.2,0,0,0-.27.09L418.3,571l-1-5.5a.22.22,0,0,0-.16-.16.22.22,0,0,0-.21.09l-2.86,4.39-.23-5.23a.2.2,0,0,0-.14-.18.21.21,0,0,0-.22.07l-3,4-.35-5.58a.21.21,0,0,0-.13-.17.2.2,0,0,0-.21,0L406,566.42l.18-5.52a.2.2,0,0,0-.12-.19.2.2,0,0,0-.21,0L402,564.2l.77-5.66a.21.21,0,0,0-.17-.22.2.2,0,0,0-.23.17l-.83,6.2a.19.19,0,0,0,.1.2.2.2,0,0,0,.23,0l3.86-3.5-.18,5.54a.17.17,0,0,0,.11.18.2.2,0,0,0,.22,0l3.88-3.71.36,5.69a.18.18,0,0,0,.14.17.19.19,0,0,0,.22-.07l3-4,.23,5.29a.18.18,0,0,0,.15.18.19.19,0,0,0,.22-.08L417,566l1,5.6a.19.19,0,0,0,.17.16h0a.19.19,0,0,0,.18-.11l2.57-5.11A.2.2,0,0,0,420.86,566.29Z"/><path class="cls-3" d="M440.85,564.71a.2.2,0,0,0-.2-.2h0a.2.2,0,0,0-.2.2l0,5.09-3.34-4.19a.21.21,0,0,0-.22-.07.22.22,0,0,0-.14.17l-.48,5.22-2.64-4.52a.2.2,0,0,0-.21-.09.19.19,0,0,0-.16.16l-.81,5-2.91-4.77a.21.21,0,0,0-.19-.09.2.2,0,0,0-.17.13l-1.68,5-2.41-5a.2.2,0,0,0-.19-.11.19.19,0,0,0-.18.13L423,571.65l-2-5.36a.22.22,0,0,0-.26-.12.21.21,0,0,0-.12.26l2.15,5.87a.21.21,0,0,0,.19.13h0a.2.2,0,0,0,.19-.13l1.78-4.9,2.42,5a.2.2,0,0,0,.18.11h0a.2.2,0,0,0,.18-.13l1.69-5.09,3,4.86a.19.19,0,0,0,.21.09.18.18,0,0,0,.15-.16l.81-5,2.67,4.58a.2.2,0,0,0,.37-.08l.49-5.35,3.39,4.25a.19.19,0,0,0,.22.06.2.2,0,0,0,.14-.19Z"/><path class="cls-3" d="M460.29,558.79l-2.67-5a.19.19,0,0,0-.27-.08.2.2,0,0,0-.08.27l2.39,4.48-4.9-2.14a.18.18,0,0,0-.22,0,.19.19,0,0,0-.05.21l1.9,4.79-4.33-2.71a.21.21,0,0,0-.23,0,.23.23,0,0,0-.07.23l1.62,4.78-4.81-2.86a.2.2,0,0,0-.21,0,.2.2,0,0,0-.09.2l.87,5.23L444.69,563a.22.22,0,0,0-.22,0,.19.19,0,0,0-.1.19l.35,5.22-3.87-3.93a.21.21,0,0,0-.29,0,.21.21,0,0,0,0,.28l4.25,4.32a.25.25,0,0,0,.14.06l.09,0a.21.21,0,0,0,.11-.2l-.36-5.33,4.51,3.31a.2.2,0,0,0,.22,0,.18.18,0,0,0,.09-.2l-.87-5.29,4.9,2.91a.18.18,0,0,0,.22,0,.21.21,0,0,0,.07-.22l-1.61-4.77,4.37,2.74a.21.21,0,0,0,.24,0,.2.2,0,0,0,.05-.23L455,556.89l5,2.18a.22.22,0,0,0,.23-.05A.2.2,0,0,0,460.29,558.79Z"/><path class="cls-3" d="M472.15,539.43l-4.83-3.07a.2.2,0,0,0-.27.06.21.21,0,0,0,.06.28l4.32,2.74-5.57.4a.22.22,0,0,0-.18.14.21.21,0,0,0,.07.22l4.08,3.29-5.23-.31a.2.2,0,0,0-.14.35l3.7,3.43-5.58-.21a.19.19,0,0,0-.19.1.22.22,0,0,0,0,.22l3.27,4.18-5.48-.74a.2.2,0,0,0-.2.1.2.2,0,0,0,0,.22l3.05,4.13-5.55-1.33a.2.2,0,0,0-.24.15.2.2,0,0,0,.15.24l6.08,1.46h0a.2.2,0,0,0,.16-.32L460.62,551l5.49.74a.2.2,0,0,0,.2-.1.2.2,0,0,0,0-.22l-3.3-4.23,5.7.22a.2.2,0,0,0,.14-.35l-3.69-3.42,5.29.31a.22.22,0,0,0,.2-.13.2.2,0,0,0-.06-.22l-4.18-3.37,5.67-.4a.22.22,0,0,0,.18-.15A.21.21,0,0,0,472.15,539.43Z"/><path class="cls-3" d="M474.15,525.18l-4.85-1.32,4.83-2.18a.2.2,0,0,0,.12-.2.21.21,0,0,0-.16-.18l-5.27-1,4.59-2.92a.19.19,0,0,0,.08-.21.2.2,0,0,0-.17-.16l-5.63-.56a.2.2,0,0,0-.22.18.19.19,0,0,0,.18.21l5.06.51-4.52,2.88a.22.22,0,0,0-.09.21.22.22,0,0,0,.16.16l5.14,1-4.77,2.16a.2.2,0,0,0-.12.2.2.2,0,0,0,.15.17l4.87,1.32-5,2.4a.21.21,0,0,0-.12.18.22.22,0,0,0,.12.18l4.83,2.2-5.19,1.88a.2.2,0,0,0-.14.17.19.19,0,0,0,.12.19l4.62,2.26-5.54,1.38a.2.2,0,0,0-.14.25.19.19,0,0,0,.19.15h0l6.06-1.52a.2.2,0,0,0,.15-.17.19.19,0,0,0-.11-.2l-4.69-2.29,5.22-1.88a.23.23,0,0,0,.13-.18.21.21,0,0,0-.12-.19L469,528l5.15-2.45a.19.19,0,0,0,.11-.2A.2.2,0,0,0,474.15,525.18Z"/><path class="cls-3" d="M472.48,512.69a.21.21,0,0,0-.18-.14l-5.34-.2,3.76-4.13a.18.18,0,0,0,0-.22.18.18,0,0,0-.19-.11l-5.35.31,3.41-4.56a.2.2,0,0,0-.2-.32l-4.91,1.1,3.18-4.06a.23.23,0,0,0,0-.24.21.21,0,0,0-.22-.08l-5.08,1.42,2.7-4.73a.21.21,0,0,0,0-.23.2.2,0,0,0-.23-.06l-5.25,2.13a.2.2,0,0,0,.15.37l4.72-1.91-2.65,4.65a.2.2,0,0,0,.22.29l5-1.38-3.14,4a.2.2,0,0,0,0,.23.21.21,0,0,0,.22.09l4.92-1.11-3.35,4.48a.2.2,0,0,0,0,.22.17.17,0,0,0,.18.1l5.3-.31-3.72,4.09a.2.2,0,0,0,0,.21.2.2,0,0,0,.18.12l5.23.2-4.32,3.44a.2.2,0,0,0,0,.28.2.2,0,0,0,.16.07.19.19,0,0,0,.12,0l4.74-3.77A.2.2,0,0,0,472.48,512.69Z"/><path class="cls-3" d="M460.83,492.68a.2.2,0,0,0-.23,0l-4.49,2.64,1.31-5.39a.2.2,0,0,0-.3-.21l-4.55,2.83.81-5.64a.2.2,0,0,0-.1-.2.21.21,0,0,0-.23,0L449.27,490l.86-5.24a.21.21,0,0,0-.11-.21.21.21,0,0,0-.23,0l-3.78,3.8.19-5.68a.2.2,0,0,0-.36-.13l-3.24,4.08-.46-5.38a.18.18,0,0,0-.15-.17.18.18,0,0,0-.21.09l-2.63,4.33-1.23-5.32a.19.19,0,0,0-.17-.15.19.19,0,0,0-.2.1l-2.48,4.43-1.72-5.25a.2.2,0,0,0-.19-.14h0a.21.21,0,0,0-.19.13l-1.73,4.82-2.8-5.15a.2.2,0,0,0-.35.19l3,5.54a.19.19,0,0,0,.19.1.17.17,0,0,0,.17-.12l1.69-4.7,1.68,5.13a.2.2,0,0,0,.37,0l2.45-4.38,1.22,5.29a.22.22,0,0,0,.16.16.2.2,0,0,0,.2-.1L441.8,482l.44,5.27a.19.19,0,0,0,.14.17.21.21,0,0,0,.22-.07l3.18-4-.19,5.58a.21.21,0,0,0,.12.19.2.2,0,0,0,.22,0l3.7-3.72-.85,5.17a.23.23,0,0,0,.1.21.2.2,0,0,0,.23,0l3.8-3.32-.8,5.53a.2.2,0,0,0,.09.2.2.2,0,0,0,.21,0l4.5-2.81-1.31,5.37a.21.21,0,0,0,.08.21.2.2,0,0,0,.22,0l4.43-2.6-1.91,5.38a.2.2,0,0,0,.13.25h.06a.21.21,0,0,0,.19-.13l2.09-5.89A.19.19,0,0,0,460.83,492.68Z"/><path class="cls-3" d="M447.83,483.61a.2.2,0,0,0-.23,0l-4,3.64.38-5.35a.21.21,0,0,0-.13-.2.2.2,0,0,0-.22,0l-3.38,4.09v-5a.21.21,0,0,0-.13-.19.2.2,0,0,0-.22.06L436.16,485l-.85-5.3a.2.2,0,0,0-.15-.16.21.21,0,0,0-.21.08l-3.2,4.53-1-5.13a.22.22,0,0,0-.16-.16.21.21,0,0,0-.21.1l-2.89,5.13-2.66-5a.2.2,0,0,0-.27-.09.21.21,0,0,0-.08.27l2.82,5.33a.22.22,0,0,0,.18.1.16.16,0,0,0,.17-.1l2.81-5,.95,5.05a.18.18,0,0,0,.15.15.2.2,0,0,0,.21-.08l3.18-4.51.84,5.24a.19.19,0,0,0,.14.16.2.2,0,0,0,.21-.06l3.65-4.24v5.05a.21.21,0,0,0,.13.19.2.2,0,0,0,.22-.06l3.34-4-.37,5.23a.21.21,0,0,0,.11.2.22.22,0,0,0,.22,0l4-3.6-.84,5a.2.2,0,0,0,.16.23h0a.2.2,0,0,0,.2-.16l.94-5.59A.18.18,0,0,0,447.83,483.61Z"/><path class="cls-3" d="M465.22,498.15a.18.18,0,0,0-.21-.08l-5.28,1.34,2.71-4.52a.2.2,0,0,0,0-.23.2.2,0,0,0-.23-.05l-4.76,2,2.36-4.44a.18.18,0,0,0,0-.22.19.19,0,0,0-.22-.06L454.23,494l1.72-5.08a.2.2,0,0,0-.05-.22.2.2,0,0,0-.22,0l-5,2.53,1.21-5.2a.19.19,0,0,0-.08-.21.2.2,0,0,0-.23,0l-4.89,3.57a.2.2,0,0,0,0,.28.18.18,0,0,0,.27,0l4.46-3.25-1.19,5.1a.2.2,0,0,0,.29.22l4.92-2.5-1.7,5a.23.23,0,0,0,0,.21.2.2,0,0,0,.21,0l5.21-2.05-2.37,4.46a.2.2,0,0,0,0,.23.21.21,0,0,0,.22.05l4.72-2-2.65,4.42a.2.2,0,0,0,0,.22.21.21,0,0,0,.21.07l5.19-1.32-3.09,4a.2.2,0,0,0,0,.28.21.21,0,0,0,.12,0,.18.18,0,0,0,.15-.08l3.44-4.5A.18.18,0,0,0,465.22,498.15Z"/><path class="cls-3" d="M473.76,519l-5.52-1.32,4.65-2.64a.2.2,0,0,0,.1-.22.21.21,0,0,0-.17-.16l-5.28-.55,4.2-2.77a.22.22,0,0,0,.09-.21.2.2,0,0,0-.17-.16l-5.66-.71,3.94-3.63a.21.21,0,0,0,.05-.22.19.19,0,0,0-.18-.13l-5.54-.16,3.74-3.64a.2.2,0,0,0,0-.22.2.2,0,0,0-.2-.12l-6.23.46a.19.19,0,0,0-.19.21.2.2,0,0,0,.22.18l5.69-.41-3.69,3.59a.2.2,0,0,0,0,.21.21.21,0,0,0,.18.13l5.52.16-3.9,3.59a.19.19,0,0,0-.05.21.19.19,0,0,0,.16.14l5.55.69-4.21,2.78a.21.21,0,0,0-.08.22.19.19,0,0,0,.17.15l5.21.55-4.57,2.58a.18.18,0,0,0-.09.2.19.19,0,0,0,.15.17l5.43,1.3-4.71,2a.2.2,0,0,0,.08.38l.08,0,5.26-2.25a.2.2,0,0,0,.12-.2A.2.2,0,0,0,473.76,519Z"/><path class="cls-3" d="M474.27,523.84l-5.74-2.48a.2.2,0,1,0-.15.36l5.23,2.27-4.92,1.48a.18.18,0,0,0-.14.16.2.2,0,0,0,.1.2l4.82,2.7-5.12,1.38a.19.19,0,0,0-.14.16.2.2,0,0,0,.08.2l4.6,3.18-5,.52a.18.18,0,0,0-.17.15.19.19,0,0,0,.08.21l4.36,2.9-5.24.18a.21.21,0,0,0-.18.13.19.19,0,0,0,.06.22l4,3.57-5.08-.31a.18.18,0,0,0-.21.18.19.19,0,0,0,.18.21l5.66.35h0a.17.17,0,0,0,.18-.12.19.19,0,0,0-.05-.22l-4-3.63,5.37-.18a.2.2,0,0,0,.18-.15.19.19,0,0,0-.08-.22l-4.41-2.93,5-.52a.2.2,0,0,0,.17-.15.2.2,0,0,0-.08-.21l-4.69-3.25,5.18-1.4a.19.19,0,0,0,.15-.16.2.2,0,0,0-.1-.2l-4.84-2.71,5-1.49a.23.23,0,0,0,.15-.18A.21.21,0,0,0,474.27,523.84Z"/><path class="cls-3" d="M469.77,545.62l-4.07-4.49a.2.2,0,1,0-.29.27l3.7,4.09-5.19-.65a.19.19,0,0,0-.19.09.2.2,0,0,0,0,.22l3,4.63-5.18-1.16a.2.2,0,0,0-.2.07.18.18,0,0,0,0,.21l2.58,5L459.24,552a.22.22,0,0,0-.23,0,.21.21,0,0,0,0,.23l2.45,4.48-4.67-2.17a.2.2,0,0,0-.22,0,.19.19,0,0,0-.05.21l1.87,5L454,557.2a.2.2,0,0,0-.27.06.2.2,0,0,0,.07.28l4.83,2.94a.19.19,0,0,0,.1,0,.2.2,0,0,0,.13,0,.2.2,0,0,0,.06-.23l-1.89-5.1,4.78,2.22a.2.2,0,0,0,.23-.05.18.18,0,0,0,0-.23l-2.47-4.52,4.66,1.87a.17.17,0,0,0,.22,0,.18.18,0,0,0,0-.22l-2.63-5.06,5.24,1.18a.22.22,0,0,0,.2-.08.21.21,0,0,0,0-.23l-3-4.68,5.3.66a.21.21,0,0,0,.21-.1A.21.21,0,0,0,469.77,545.62Z"/><path class="cls-3" d="M454.05,557.35a.2.2,0,0,0-.23-.16.21.21,0,0,0-.16.24l1,5.61-3.95-3.28a.22.22,0,0,0-.22,0,.21.21,0,0,0-.11.19l.43,5.51-4-3.49a.2.2,0,0,0-.22,0,.19.19,0,0,0-.11.18l-.11,5.59-3.21-3.89a.19.19,0,0,0-.22-.06.2.2,0,0,0-.13.19v5.23l-3.05-4.26a.2.2,0,0,0-.21-.08.2.2,0,0,0-.15.17l-.72,5.53L436.21,566a.21.21,0,0,0-.28-.08.2.2,0,0,0-.07.27l2.79,5a.18.18,0,0,0,.17.11h0a.19.19,0,0,0,.16-.17l.73-5.63,3.12,4.36a.19.19,0,0,0,.22.07.2.2,0,0,0,.14-.19v-5.3l3.19,3.88a.2.2,0,0,0,.23.06.2.2,0,0,0,.13-.18l.11-5.7,4,3.53a.18.18,0,0,0,.22,0,.19.19,0,0,0,.11-.19l-.42-5.53,4,3.33a.19.19,0,0,0,.32-.18Z"/><path class="cls-3" d="M436,565.84a.2.2,0,0,0-.25.13L434,571.41l-2-4.75a.21.21,0,0,0-.19-.12.19.19,0,0,0-.18.12l-2.2,5.07-1.89-5a.21.21,0,0,0-.17-.13.21.21,0,0,0-.19.11l-2.7,4.89-1-4.94a.23.23,0,0,0-.17-.16.21.21,0,0,0-.21.11l-2.44,4.63-.71-5.2a.2.2,0,0,0-.15-.16.21.21,0,0,0-.21.07l-3.15,4.34-.19-5.09a.2.2,0,0,0-.4,0l.22,5.65a.2.2,0,0,0,.14.19.22.22,0,0,0,.22-.07l3.2-4.4.72,5.32a.21.21,0,0,0,.17.17.2.2,0,0,0,.21-.1l2.47-4.7,1,4.93a.19.19,0,0,0,.16.16.23.23,0,0,0,.21-.1l2.75-5,1.92,5a.23.23,0,0,0,.18.13h0a.21.21,0,0,0,.18-.12l2.2-5.09,2,4.82a.2.2,0,0,0,.38,0l1.89-6A.21.21,0,0,0,436,565.84Z"/><path class="cls-3" d="M416.17,565a.19.19,0,0,0-.28,0l-3.7,4.1.12-5.23a.19.19,0,0,0-.11-.18.18.18,0,0,0-.21,0l-4.31,3.46.63-5.27a.19.19,0,0,0-.09-.19.2.2,0,0,0-.21,0l-4.68,3.07,1.4-4.85a.19.19,0,0,0-.07-.22.2.2,0,0,0-.23,0l-4.21,2.89,1.69-4.86a.21.21,0,0,0-.06-.21.18.18,0,0,0-.22,0l-4.81,2.36,2.2-4.59a.2.2,0,1,0-.36-.17l-2.45,5.1a.21.21,0,0,0,0,.23.2.2,0,0,0,.23,0l4.89-2.4-1.73,5a.21.21,0,0,0,.07.22.21.21,0,0,0,.24,0l4.25-2.92-1.4,4.83a.21.21,0,0,0,.07.21.21.21,0,0,0,.23,0l4.77-3.13-.65,5.32a.2.2,0,0,0,.33.18l4.35-3.49-.12,5.34a.18.18,0,0,0,.12.19H412a.18.18,0,0,0,.15-.07l4.06-4.49A.19.19,0,0,0,416.17,565Z"/><path class="cls-3" d="M398.75,554.93l-5.48,1.57,2.87-4.26a.22.22,0,0,0,0-.22.18.18,0,0,0-.2-.09l-5.44,1,3.08-4.32a.22.22,0,0,0,0-.22.21.21,0,0,0-.19-.1l-5.57.46,3.55-3.59a.2.2,0,0,0,0-.22.22.22,0,0,0-.2-.12l-5.21.53,3.93-3.46a.23.23,0,0,0,.06-.22.2.2,0,0,0-.19-.13l-5.58-.16,4.2-2.93a.2.2,0,0,0-.23-.33l-4.69,3.28a.19.19,0,0,0-.07.22.17.17,0,0,0,.18.14l5.68.16-4,3.55a.17.17,0,0,0,0,.22.19.19,0,0,0,.2.12l5.27-.53-3.53,3.57a.2.2,0,0,0,0,.23.21.21,0,0,0,.2.11l5.68-.47-3.11,4.37a.2.2,0,0,0,.19.31l5.46-1-2.91,4.33a.2.2,0,0,0,0,.23.21.21,0,0,0,.16.08h.06l6-1.72a.2.2,0,1,0-.12-.38Z"/><path class="cls-3" d="M388.34,538l-5.59-1.15,4.51-2.45a.23.23,0,0,0,.11-.2.22.22,0,0,0-.14-.17L382,532.39l4.73-2.4a.21.21,0,0,0,.11-.19.19.19,0,0,0-.12-.17l-5.15-2.18,4.8-1.53a.2.2,0,0,0,.14-.19.18.18,0,0,0-.12-.19l-4.86-1.94,5.09-1.25a.24.24,0,0,0,.15-.17.2.2,0,0,0-.1-.2L382,519.31l5-.74a.2.2,0,0,0-.05-.39l-5.61.81a.2.2,0,0,0-.16.16.19.19,0,0,0,.09.21l4.71,2.72-5.21,1.28a.22.22,0,0,0-.16.19.21.21,0,0,0,.13.19l4.92,2-4.79,1.53a.21.21,0,0,0-.14.18.21.21,0,0,0,.12.19l5.26,2.22-4.78,2.43a.2.2,0,0,0-.11.2.18.18,0,0,0,.14.17l5.29,1.65-4.59,2.49a.21.21,0,0,0-.1.21.19.19,0,0,0,.16.16l6.12,1.26h0a.2.2,0,0,0,0-.39Z"/><path class="cls-3" d="M395.24,500l-5.33-1.9a.21.21,0,0,0-.22.07.2.2,0,0,0,0,.23l2.9,4.61-5.13-1.19a.18.18,0,0,0-.21.09.2.2,0,0,0,0,.23L390.6,506l-5-.88a.19.19,0,0,0-.21.09.19.19,0,0,0,0,.23l3.61,4.41-5.36-.08a.21.21,0,0,0-.19.13.18.18,0,0,0,0,.21l3.94,4-5.33.44a.2.2,0,0,0-.17.15.2.2,0,0,0,.07.21l4.9,3.57.12,0a.18.18,0,0,0,.16-.08.2.2,0,0,0,0-.28l-4.47-3.24,5.22-.43a.21.21,0,0,0,.17-.13.18.18,0,0,0-.05-.21l-3.89-3.92,5.3.08a.2.2,0,0,0,.18-.12.18.18,0,0,0,0-.21l-3.54-4.33,5,.89a.2.2,0,0,0,.2-.1.2.2,0,0,0,0-.23l-3.32-3.88,5,1.17a.21.21,0,0,0,.2-.08.21.21,0,0,0,0-.23l-2.85-4.53,4.79,1.7a.2.2,0,1,0,.13-.37Z"/><path class="cls-3" d="M424.78,479a.19.19,0,0,0-.26.09L422,484.39,420,479.65a.2.2,0,0,0-.37,0L418.14,485l-2.68-4.32a.2.2,0,0,0-.2-.09.2.2,0,0,0-.16.16l-1,5.37-2.82-4.21a.21.21,0,0,0-.22-.08.22.22,0,0,0-.15.18l-.21,5.4-3.42-3.94a.22.22,0,0,0-.23,0,.19.19,0,0,0-.12.2l.44,5.66-3.95-3.62a.2.2,0,0,0-.23,0,.19.19,0,0,0-.1.21l1.09,5.19-3.92-3.14a.21.21,0,0,0-.23,0,.23.23,0,0,0-.1.21l1.07,5.6L396.33,491a.18.18,0,0,0-.22,0,.2.2,0,0,0-.07.21l1.55,5.32-4.6-2.44a.2.2,0,0,0-.23,0,.18.18,0,0,0-.05.22l2.34,5.79a.21.21,0,0,0,.19.13l.07,0a.19.19,0,0,0,.11-.25l-2.14-5.29,4.54,2.4a.2.2,0,0,0,.22,0,.21.21,0,0,0,.07-.21l-1.54-5.31,4.61,2.61a.2.2,0,0,0,.3-.21l-1-5.49,3.94,3.15a.19.19,0,0,0,.23,0,.21.21,0,0,0,.09-.21l-1.08-5.12,3.86,3.54a.21.21,0,0,0,.23,0,.23.23,0,0,0,.11-.2l-.44-5.56,3.36,3.86a.2.2,0,0,0,.22,0,.17.17,0,0,0,.13-.18l.21-5.28,2.75,4.11a.2.2,0,0,0,.21.08.22.22,0,0,0,.16-.16l1-5.34,2.64,4.27a.2.2,0,0,0,.2.09.19.19,0,0,0,.16-.14l1.46-5.2,1.89,4.61a.2.2,0,0,0,.18.12.21.21,0,0,0,.19-.11l2.76-5.67A.21.21,0,0,0,424.78,479Z"/><path class="cls-3" d="M470.78,507.57a47.14,47.14,0,1,0,3.65,18.3A46.87,46.87,0,0,0,470.78,507.57ZM427.3,571.7a45.95,45.95,0,1,1,46.06-45.83A46,46,0,0,1,427.3,571.7Z"/><path class="cls-3" d="M430.37,484.69a.09.09,0,0,0-.1.09L424.38,567a.1.1,0,0,0,.09.1h0a.11.11,0,0,0,.1-.09l5.88-82.17A.09.09,0,0,0,430.37,484.69Z"/><path class="cls-3" d="M468.51,528.72l-82.17-5.89a.1.1,0,0,0,0,.19l82.16,5.89h0a.11.11,0,0,0,.1-.09A.1.1,0,0,0,468.51,528.72Z"/><path class="cls-3" d="M458.49,498.83l-62.27,53.94a.09.09,0,0,0,0,.13.11.11,0,0,0,.07,0,.08.08,0,0,0,.07,0L458.61,499a.09.09,0,0,0,0-.13A.09.09,0,0,0,458.49,498.83Z"/><path class="cls-3" d="M400.52,494.68s-.1-.05-.13,0a.09.09,0,0,0,0,.13l53.94,62.26s0,0,.07,0a.07.07,0,0,0,.06,0,.09.09,0,0,0,0-.13Z"/><path class="cls-3" d="M464.52,543.75l-74.13-35.93a.09.09,0,0,0-.12.05.08.08,0,0,0,0,.12l74.13,35.93h0a.1.1,0,0,0,.09-.06A.09.09,0,0,0,464.52,543.75Z"/><path class="cls-3" d="M445.42,488.72a.09.09,0,0,0-.12,0L409.37,562.9a.1.1,0,0,0,0,.12h0a.11.11,0,0,0,.09,0l35.92-74.14A.08.08,0,0,0,445.42,488.72Z"/><path class="cls-3" d="M414.59,486.73a.09.09,0,1,0-.18.06L440.25,565a.09.09,0,0,0,.09.06h0a.11.11,0,0,0,.06-.12Z"/><path class="cls-3" d="M466.5,512.86,388.28,538.7a.09.09,0,0,0-.06.12.08.08,0,0,0,.08.06h0L466.56,513a.09.09,0,1,0-.06-.18Z"/><path class="cls-3" d="M436.09,485.51a.09.09,0,0,0-.11.07l-17.31,80.54a.09.09,0,0,0,.07.11h0a.1.1,0,0,0,.09-.07l17.31-80.54A.09.09,0,0,0,436.09,485.51Z"/><path class="cls-3" d="M467.71,534.43l-80.54-17.31a.11.11,0,0,0-.12.07.1.1,0,0,0,.08.12l80.54,17.31h0a.1.1,0,0,0,.09-.07A.1.1,0,0,0,467.71,534.43Z"/><path class="cls-3" d="M462,503.44l-69.19,44.71a.1.1,0,0,0,0,.13.12.12,0,0,0,.08,0l.05,0,69.19-44.71a.09.09,0,0,0,0-.13A.09.09,0,0,0,462,503.44Z"/><path class="cls-3" d="M405.14,491.22a.09.09,0,0,0-.16.1l44.71,69.2a.12.12,0,0,0,.08,0l.05,0a.09.09,0,0,0,0-.13Z"/><path class="cls-3" d="M461.66,548.76l-68.38-45.93a.09.09,0,0,0-.13,0,.09.09,0,0,0,0,.13l68.39,45.93.05,0a.12.12,0,0,0,.08,0A.09.09,0,0,0,461.66,548.76Z"/><path class="cls-3" d="M450.44,491.6a.09.09,0,0,0-.13,0L404.37,560a.1.1,0,0,0,0,.13l.05,0a.12.12,0,0,0,.08,0l45.93-68.39A.09.09,0,0,0,450.44,491.6Z"/><path class="cls-3" d="M420.18,485.32a.11.11,0,0,0-.11-.08.09.09,0,0,0-.07.11l14.65,81.07a.11.11,0,0,0,.09.08h0a.08.08,0,0,0,.08-.1Z"/><path class="cls-3" d="M467.93,518.45,386.87,533.1a.1.1,0,0,0-.08.11.09.09,0,0,0,.09.08h0L468,518.64a.1.1,0,0,0,.07-.12A.09.09,0,0,0,467.93,518.45Z"/><path class="cls-3" d="M441.22,487a.09.09,0,0,0-.12.06l-27.55,77.64a.1.1,0,0,0,.06.12h0a.09.09,0,0,0,.09-.06l27.55-77.64A.09.09,0,0,0,441.22,487Z"/><path class="cls-3" d="M466.27,539.56,388.63,512a.09.09,0,0,0-.12,0,.09.09,0,0,0,.06.12l77.63,27.55h0a.09.09,0,0,0,.09-.06A.09.09,0,0,0,466.27,539.56Z"/><path class="cls-3" d="M464.69,508.12a.1.1,0,0,0-.12,0l-74.38,35.41a.1.1,0,0,0-.05.13.11.11,0,0,0,.09,0h0l74.38-35.41A.11.11,0,0,0,464.69,508.12Z"/><path class="cls-3" d="M445.21,563l-35.42-74.38a.08.08,0,0,0-.12,0,.09.09,0,0,0-.05.12L445,563.1a.1.1,0,0,0,.08,0h0A.09.09,0,0,0,445.21,563Z"/><path class="cls-3" d="M458.42,553l-61.89-54.36a.09.09,0,0,0-.13,0,.11.11,0,0,0,0,.14l61.89,54.36.06,0a.08.08,0,0,0,.07,0A.1.1,0,0,0,458.42,553Z"/><path class="cls-3" d="M454.66,494.85a.09.09,0,0,0-.13,0l-54.37,61.89a.11.11,0,0,0,0,.14l.06,0a.08.08,0,0,0,.07,0L454.67,495A.1.1,0,0,0,454.66,494.85Z"/><path class="cls-3" d="M425.47,484.73a.08.08,0,0,0-.1-.09.09.09,0,0,0-.09.1L429.36,567a.09.09,0,0,0,.1.09h0a.09.09,0,0,0,.09-.1Z"/><path class="cls-3" d="M468.55,523.74l-82.28,4.08a.09.09,0,0,0-.09.09.11.11,0,0,0,.1.09h0l82.28-4.07a.11.11,0,0,0,.09-.1A.09.09,0,0,0,468.55,523.74Z"/><path class="cls-3" d="M428.11,525.69h0a.53.53,0,0,0,0-.12h0l-.06-.11h0l-.07-.09h0l-.09-.07h0l-.08,0,0,0-.07,0,0,0h-.27l-.06,0-.07,0,0,0-.09,0h0l-.09.08h0l-.08.1h0l-.06.11h0a.53.53,0,0,0,0,.12h0l-10.33,58.68a.65.65,0,0,0,.53.77h.12a.66.66,0,0,0,.66-.55l9.66-54.89,9.42,55a.66.66,0,0,0,.65.55h.11a.68.68,0,0,0,.55-.77Z"/><path class="cls-3" d="M427.46,525.8h0Zm1.17,6.87-1.17-6.86-1.26,6.79Z"/><circle class="cls-3" cx="427.42" cy="525.76" r="2.79"/><rect class="cls-3" x="765.01" y="563.86" width="6.88" height="21.45" transform="translate(191.93 1341.59) rotate(-89.86)"/><path class="cls-3" d="M789.86,552.18c.41-2.43-1.6-9.12-1.6-9.12l-2.63-.41c-.18-8.09-3.08-10.71-3.08-10.71l-5-7.73-17.4,0-5,7.71s-2.91,2.59-3.13,10.69l-2.64.4s-2,6.67-1.64,9.1c0,0-2,4.85-3.66,6.06l49.39.13C791.87,557,789.86,552.18,789.86,552.18Z"/><path class="cls-3" d="M783,532.43l-28.21-.08a8.52,8.52,0,0,0-.48.71l29.16.07C783.26,532.84,783.1,532.61,783,532.43Z"/><path class="cls-3" d="M783.93,534.07,753.78,534c-.11.21-.21.45-.31.7l30.77.08C784.14,534.53,784,534.29,783.93,534.07Z"/><path class="cls-3" d="M785.43,539.72l-33.18-.09c0,.36-.08.73-.11,1.12l33.4.08C785.51,540.45,785.47,540.07,785.43,539.72Z"/><path class="cls-3" d="M784.91,536.88l-32.13-.08c-.06.26-.13.53-.19.81l32.51.08C785,537.41,785,537.14,784.91,536.88Z"/><path class="cls-3" d="M788.67,544.51c0-.08,0-.16-.07-.24s0,0,0-.06-.05-.17-.07-.25v0c0-.18-.09-.33-.13-.46v0a1,1,0,0,1,0-.14l0-.05a.31.31,0,0,0,0-.08s0,0,0,0,0,0,0,0h0v0l-2.63-.42-33.6-.08-2.63.4a.15.15,0,0,1,0,.06v0s0,0,0,0l0,.06s0,0,0,0l0,.09a.43.43,0,0,0,0,.05.56.56,0,0,0,0,.12s0,0,0,0l0,.15v.06a.84.84,0,0,0-.05.17l0,.06-.06.2v0l39.62.38Z"/><path class="cls-3" d="M789.22,546.71l-40.79-.1c-.13.59-.27,1.21-.38,1.82l41.54.1C789.48,547.92,789.35,547.3,789.22,546.71Z"/><path class="cls-3" d="M790.21,553l-.35-.81a5.26,5.26,0,0,0,0-1.22l-42.18-.1a6.55,6.55,0,0,0,0,1.21s-.13.32-.36.81Z"/><path class="cls-3" d="M791,554.61l-44.37-.11c-.31.6-.66,1.23-1,1.82l46.42.11C791.64,555.85,791.3,555.21,791,554.61Z"/><path class="cls-3" d="M752.79,523.24s3.68,5.07,2.38,8.64c0,0,2.89-1.36,3.73-2.58s3-3.63,3-4.92Z"/><path class="cls-3" d="M784.87,523.32l-9.08,1.09c0,1.29,2.11,3.73,2.94,4.94s3.72,2.6,3.72,2.6C781.17,528.37,784.87,523.32,784.87,523.32Z"/><path class="cls-3" d="M778.83,529.48l-20-.05a5,5,0,0,1-.61.61l21.25.05A4.39,4.39,0,0,1,778.83,529.48Z"/><path class="cls-3" d="M776.7,526.54l-15.75,0-.35.51,16.44,0Z"/><path class="cls-3" d="M784.54,519.88s-7-16.48-15.63-14.84c-8.59-1.69-15.7,14.76-15.7,14.76-.92,1.21-.42,3.44-.42,3.44,2.06.82,5.75,1.19,9.09,1.35l1,0c3.18.12,5.81.06,6,.06s2.78.07,5.92,0l1.13,0c3.32-.14,7-.5,9-1.3C784.94,523.32,785.45,521.1,784.54,519.88Z"/><path class="cls-3" d="M768.91,505c-8.59-1.69-15.7,14.76-15.7,14.76-.92,1.21-.42,3.44-.42,3.44,2.05.82,5.75,1.19,9.09,1.35l1,0c3.17.12,5.81.06,6,.06S768.91,505,768.91,505Z"/><path class="cls-3" d="M761.47,511.93a1.39,1.39,0,0,0-.6-.61c-.67,0-.86.54-.86,1.21l-.37,3.34a1.22,1.22,0,0,0,1.22,1.22.84.84,0,0,0,.6-.35C761.61,516.43,761.88,512.74,761.47,511.93Z"/><path class="cls-3" d="M777.53,512.58c0-.67-.19-1.22-.86-1.22a1.44,1.44,0,0,0-.61.61c-.4.81-.16,4.5,0,4.8a.84.84,0,0,0,.61.36,1.21,1.21,0,0,0,1.21-1.21Z"/><path class="cls-3" d="M768.93,504.59s-7.39.28-7.4,4.41l0,10.77c0,5,14.56,5.13,14.58,0l0-10.78C776.11,505,768.93,504.59,768.93,504.59Z"/><path class="cls-3" d="M776.08,517.73l0-8.7c0-4-7.17-4.44-7.17-4.44s-7.39.28-7.4,4.41l0,8.7c0,2-.27,3.45,1.28,4.37a16.7,16.7,0,0,1,6.08-1.55,17.57,17.57,0,0,1,6.06,1.46C776.34,520.89,776.08,519.76,776.08,517.73Z"/><polygon class="cls-3" points="753.52 557.95 753.41 567.47 755.17 583.66 763.04 571.29 773.77 571.32 782.31 583.73 784 569.59 784.1 557.83 753.52 557.95"/><polygon class="cls-3" points="773.25 559.22 763.43 559.19 746.11 564.72 746.11 565.93 763.32 560.41 773.24 560.43 787.29 566.03 787.3 564.82 773.25 559.22"/><polygon class="cls-3" points="773.64 564.99 763.31 564.96 752.87 572.42 752.87 573.74 763.31 566.28 773.53 566.3 784.75 573.82 784.75 572.5 773.64 564.99"/><path class="cls-3" d="M713.52,566.56s-5.5,14.35-4.7,16.89c0,0,6.3,1.23,10.85.12l1.74-15.78a6.51,6.51,0,0,1,1.83-2.42l4.66-3.63S715.76,562.92,713.52,566.56Z"/><path class="cls-3" d="M753.71,562.2l-9.21.18-1.33,2.93a4.54,4.54,0,0,0-.11,3.34l1.38,15c3.64,1.43,10.73,0,10.73,0Z"/><path class="cls-3" d="M727.9,561.74l-4.66,3.63a3.81,3.81,0,0,0-1.83,2.42l-2.14,15.78a27.23,27.23,0,0,0,11.41-.07l0-14.88a3,3,0,0,1,1-2.22l4.66-5Z"/><path class="cls-3" d="M744.5,562.39c-.81-.61-8.1-1-8.1-1l-4.66,5c-1.42,1.21-1,2.23-1,2.23l0,14.87c3.24,1.53,13.77.14,13.77.14l-1.28-17Z"/><path class="cls-3" d="M753.52,557.75l-9.42.38c-4.4,2.07-20.05,4.07-19.88,4.12-3.77.65-9.27,2-10.7,4.31,0,0,8.71-.59,9.72-1.19a6.33,6.33,0,0,0-1.43,1.42c1.93,1.61,9.93-.39,9.93-.39a5,5,0,0,0-1,1.23c4,1.93,11-.48,12.19-.93.45.27,2.36,1.16,6.87.66a4.32,4.32,0,0,0,2.53-1.82l1.33-3.34Z"/><path class="cls-3" d="M824.05,566.83c-2.22-3.64-14.36-4.89-14.36-4.89l4.65,3.66a6.58,6.58,0,0,1,1.81,2.43l1.66,15.79c4.55,1.12,10.85-.07,10.85-.07C829.48,581.22,824.05,566.83,824.05,566.83Z"/><path class="cls-3" d="M794.4,565.45l-1.31-2.94-9.21-.23-1.57,21.45s7.08,1.44,10.73,0l1.45-15A4.51,4.51,0,0,0,794.4,565.45Z"/><path class="cls-3" d="M816.15,568a3.78,3.78,0,0,0-1.81-2.43l-4.65-3.66-8.5-.43,4.64,5.08a3,3,0,0,1,1,2.23l0,14.87a27.22,27.22,0,0,0,11.41.13Z"/><path class="cls-3" d="M805.83,566.59l-4.64-5.07s-7.29.38-8.1,1l1.3,4.25-1.35,17s10.52,1.44,13.76-.07l0-14.87S807.25,567.81,805.83,566.59Z"/><path class="cls-3" d="M814.34,565.6c1,.61,9.71,1.24,9.71,1.24-1.42-2.34-6.92-3.69-10.68-4.36.17-.06-15.47-2.14-19.86-4.22l-9.41-.43-.22,4.45,1.31,3.35a4.36,4.36,0,0,0,2.52,1.82c4.51.54,6.42-.35,6.88-.61,1.23.45,8.19,2.89,12.18,1a5,5,0,0,0-.94-1.24s8,2,9.93.44A6.62,6.62,0,0,0,814.34,565.6Z"/><path class="cls-3" d="M771.6,554.15h-6.29a2.22,2.22,0,0,0-2.23,2.21l0,14.94,10.73,0,0-14.94A2.23,2.23,0,0,0,771.6,554.15Z"/><path class="cls-3" d="M763.2,511.23h4.4S764.88,507.28,763.2,511.23Z"/><path class="cls-3" d="M770.38,511.24h4.4C773.12,507.3,770.38,511.24,770.38,511.24Z"/><path class="cls-3" d="M768.92,509.47c-.24,0-.43.48-.43,1.07v2.6c0,.59.19,1.07.43,1.07s.43-.48.43-1.07v-2.6C769.35,510,769.16,509.47,768.92,509.47Z"/><path class="cls-3" d="M771,516.5l-1.6.21-1.74-.21-1.5.5s2.22,2.64,6.37,0Z"/><path class="cls-3" d="M769.74,512.79h-1.56c-.49,0-.89.53-.89,1.18a1,1,0,0,0,.89,1.17h1.55c.49,0,.9-1.18.9-1.18A1.06,1.06,0,0,0,769.74,512.79Z"/><path class="cls-3" d="M769.74,512.79h-1.56c-.49,0-.89.53-.89,1.18a1,1,0,0,0,.89,1.17S770.23,512.79,769.74,512.79Z"/><path class="cls-3" d="M770.31,505.56a1.61,1.61,0,0,0-1.48-1.12,1.4,1.4,0,0,0-1.39,1.12c0,.27.37,2.62.37,2.62a.37.37,0,0,0,.35.39h1.41a.38.38,0,0,0,.35-.39S770.36,505.78,770.31,505.56Z"/><path class="cls-3" d="M265.45,580.2l-.13-.53-.3-6.9a6.11,6.11,0,0,1,1-2.3c.72-1-.13-19.45-.13-19.45a7.3,7.3,0,0,1,1.25-2.26c.54-.37-1-12.29-.7-12.46s2-1.12,3-1.64,2.9-6,2.9-6a8.45,8.45,0,0,1,1.51-1.37c.91-.62,1.73-2.5,2.09-3.39a2.19,2.19,0,0,0-.34-1.89l1.37-3-.51-.81-5.38-2.55-2.27,3.3a14.68,14.68,0,0,1-3.13-2.45c-1.07-1.26-.77-4.32-1.93-6.3a5.35,5.35,0,0,0-2.7-1.93c-.37-1.1-.95-2.78-1.12-3.49A8.6,8.6,0,0,1,260,501a6.09,6.09,0,0,0-.11-2.24c.12-.28.25-.25.3-.57a32.47,32.47,0,0,0,5-1c-.15,0-3.41-.46-5.1-.62,0-.3,0-.22-.13-.48l4.61-2.83-5.48,1.42c-.23-.23-.15-.41-.43-.6a35.77,35.77,0,0,0,2.32-4.56c-.78.63-3.59,3.52-4,3.84a5.87,5.87,0,0,0-1.12-.24l-.92-6.26-.79,6.24a2.15,2.15,0,0,0-1.17.31h0s-4.11-3.93-4.33-4.11,2.46,4.76,2.46,4.76l-.41.67-3.36-.91c-.06.25-.12.5-.18.79l2.86,1.29-.09.53a19.59,19.59,0,0,0-2.42,0,7.51,7.51,0,0,0,.39,1.16c.77.1,2,.33,2,.33s.07.11.16.28.39.62.54.9a6.2,6.2,0,0,0,.46,2.46l-.28,2.6a2.79,2.79,0,0,1-1.19-.64,5.77,5.77,0,0,1-1.69-3,7.11,7.11,0,0,0-.67-2.9,14.47,14.47,0,0,1-.72-2.6,9.8,9.8,0,0,1-.09-1c0-.14,0-.27,0-.4h0V493c-.08-2.79-2-7.48-2-8.47s-.06-3.14,0-4.76a4.87,4.87,0,0,0-1.24-3.07,3.93,3.93,0,0,1,.64-1,1.17,1.17,0,0,0,.24-.71c1.16-.24,1.95-.67,2-1.18a.65.65,0,0,0-.24-.45v-1.08a.62.62,0,0,0,.24-.46c0-.62-1.2-1.14-2.84-1.33,0-.35,0-.89.25-1.06a1.88,1.88,0,0,0,1-1.66,3.18,3.18,0,0,1,.19-1.8,5,5,0,0,1,.72-.8l-1.93.82,1.81-2.77s-3.37,1-4.49,2c-.81.71-1.33,1.57-.74,3.38a4.53,4.53,0,0,0,.94,1.85c-1.72.14-3,.68-3,1.31a.6.6,0,0,0,.22.43v1.15a.59.59,0,0,0-.21.42c0,.45.61.84,1.55,1.11a2.24,2.24,0,0,0,.55,1.42h0a4.48,4.48,0,0,0-.56,2.24,4.41,4.41,0,0,0,.87,2.81,10.1,10.1,0,0,1,.09,1.52,9,9,0,0,0,.87,2.8,20.69,20.69,0,0,1,.06,4.3c-.2,2.78,1.2,7.74,1.2,7.74a47.45,47.45,0,0,0-2.18,4.38c-1,2.33,1.93,5.58,1.93,5.58s1.85,5.33,2,7.47.75,18.94.27,22.53-1,15-.92,16.47,1,7.49.55,12.24-.46,12.61-.46,12.61l0,1.08-8.58-.06,0,4,42,.31,0-4-11.71-.1Zm5.85-63.59,4.52,2.19-1,2.15a2.78,2.78,0,0,0-1.7.35,6.12,6.12,0,0,0-1.57,2.61,11,11,0,0,0,.23,1.56l-3.52,6.08-.71-.6-.53-8.37Zm-15.52-16.25a.36.36,0,0,1-.42.35,1.89,1.89,0,0,0-.57.09l.37.57v.32a.92.92,0,0,1-.35,0c-.28,0-.36.2-.42.36s.36,0,.6,0,.33.34.33.34v.92c0,.27-.19.3-.51.26s-1.32-.1-1.65-.7a4.22,4.22,0,0,1-.22-2.33,4.93,4.93,0,0,1,1.54-.83c.2-.06.27-.65.21-1s-1-.52-1-.52c-.5-.49,1.75-1.48,2.05-1.41a9.78,9.78,0,0,1,1.6,1.29,5.06,5.06,0,0,0-1.44.44C255.67,498.83,255.81,500.12,255.78,500.36Zm1.16,1.38c-.28.09-.94-1.69-.53-1.68,0,0,1.11,0,1.13.31S257.22,501.65,256.94,501.74Zm-.53-5.36c-.25,0-1.15-.37-1.65-.08s-2,1.39-2.55,1.78-.69-1.05-.69-1.05a4.83,4.83,0,0,1,2.85-1.86,4.57,4.57,0,0,1,1.95.25c.33.18,1.11,0,1.7.47a2.52,2.52,0,0,1,.84,1.83C258.76,498,256.65,496.41,256.41,496.38Z"/><path class="cls-4" d="M153.65,188.4a25.29,25.29,0,0,0-8.52-5.2A33.22,33.22,0,0,0,132.72,181q-8.85,0-12.94,2.86a9.14,9.14,0,0,0-4.09,7.93,7.69,7.69,0,0,0,1.23,4.42,9.87,9.87,0,0,0,3.71,3.12,28.84,28.84,0,0,0,6.3,2.28q3.84,1,8.91,2.14,6,1.31,10.79,2.86a32.78,32.78,0,0,1,8.19,3.84,15.93,15.93,0,0,1,5.2,5.65,17.14,17.14,0,0,1,1.82,8.19,17.77,17.77,0,0,1-8.19,15.6,27,27,0,0,1-8.91,3.64,50,50,0,0,1-11.11,1.17,55.84,55.84,0,0,1-17-2.53A50.85,50.85,0,0,1,102,234.81L107,226a33.52,33.52,0,0,0,10.85,6.5,42.57,42.57,0,0,0,16.06,2.86q7.8,0,12.28-2.53a8.11,8.11,0,0,0,4.49-7.48,8,8,0,0,0-1.43-4.81,11.81,11.81,0,0,0-4.29-3.38,37.45,37.45,0,0,0-7-2.53q-4.09-1.11-9.42-2.28a87.66,87.66,0,0,1-10.27-2.86,26.88,26.88,0,0,1-7.35-3.77,14.47,14.47,0,0,1-4.42-5.33A17.09,17.09,0,0,1,105,193a19,19,0,0,1,2.14-9.16,19.57,19.57,0,0,1,5.85-6.63,26.77,26.77,0,0,1,8.78-4,42.39,42.39,0,0,1,11-1.37A43.12,43.12,0,0,1,147,174a40.65,40.65,0,0,1,11.31,6Z"/><path class="cls-4" d="M166.52,243.91l32.24-71.63h8.58l32.11,71.63h-11l-9.1-20.15H186.8l-9.1,20.15Zm36.53-58.76-13.91,29.51H216.7Z"/><path class="cls-4" d="M246.34,172.28l23.53,36.53,23.66-36.53H305L275.07,218v25.87h-10.4v-26L235,172.28Z"/><path class="cls-4" d="M317.06,243.91V172.28h10.4v62.4h41.21v9.23Z"/><path class="cls-4" d="M411.05,244.43a36,36,0,0,1-15.15-3.12,37.88,37.88,0,0,1-11.7-8.19,36.47,36.47,0,0,1-7.54-11.63A35.41,35.41,0,0,1,374,208a34.3,34.3,0,0,1,2.79-13.65,36.48,36.48,0,0,1,7.8-11.5,38.56,38.56,0,0,1,11.77-8,36.24,36.24,0,0,1,14.82-3A35.59,35.59,0,0,1,426.26,175a37.51,37.51,0,0,1,11.63,8.26,37.11,37.11,0,0,1,7.54,11.7,35.07,35.07,0,0,1,2.67,13.32,34.06,34.06,0,0,1-2.8,13.65,36.9,36.9,0,0,1-19.5,19.5A36.25,36.25,0,0,1,411.05,244.43Zm-26.52-36.27a27.64,27.64,0,0,0,1.88,10.08,26,26,0,0,0,5.4,8.58,27.38,27.38,0,0,0,8.38,6,25.62,25.62,0,0,0,11,2.27,25.06,25.06,0,0,0,11-2.34,25.83,25.83,0,0,0,8.26-6.17,28.51,28.51,0,0,0,7-18.53A27.64,27.64,0,0,0,435.55,198a25.83,25.83,0,0,0-5.39-8.58,26.6,26.6,0,0,0-8.39-5.92,27.18,27.18,0,0,0-21.77.13,26.14,26.14,0,0,0-8.39,6.18,27.8,27.8,0,0,0-7.08,18.39Z"/><path class="cls-4" d="M463.57,243.91V172.28h33.8a23,23,0,0,1,9.62,2A24.64,24.64,0,0,1,519.53,187a21.19,21.19,0,0,1,.59,15.4,22.56,22.56,0,0,1-3.32,6.24,22.1,22.1,0,0,1-5.13,4.94,19.92,19.92,0,0,1-6.63,3l19,27.3h-12l-17.68-25.22H474v25.22ZM474,209.46h23.4a13.35,13.35,0,0,0,5.46-1.1,12.56,12.56,0,0,0,4.22-3.06,14.3,14.3,0,0,0,2.73-4.48,14.91,14.91,0,0,0,1-5.4,13.3,13.3,0,0,0-1.11-5.39,13.66,13.66,0,0,0-3-4.42,15.07,15.07,0,0,0-4.49-3,13.3,13.3,0,0,0-5.39-1.11H474Z"/><path class="cls-4" d="M558.85,243.91l32.24-71.63h8.58l32.11,71.63h-11l-9.1-20.15h-32.5L570,243.91Zm36.53-58.76-13.91,29.51H609Z"/><path class="cls-4" d="M636.07,207.51a34.58,34.58,0,0,1,2.54-12.87,35.62,35.62,0,0,1,19-19.63,38.49,38.49,0,0,1,15.92-3.12q10.53,0,18.07,4.29a27.46,27.46,0,0,1,11.18,11.31L694.57,193a19.7,19.7,0,0,0-4.16-5.52,21.29,21.29,0,0,0-5.33-3.64,24.07,24.07,0,0,0-6-1.95,32.45,32.45,0,0,0-6-.59,26.47,26.47,0,0,0-11.44,2.34,25.53,25.53,0,0,0-8.32,6.18,26.08,26.08,0,0,0-5.07,8.64A29.07,29.07,0,0,0,646.6,208a26.78,26.78,0,0,0,2,10.27,27.49,27.49,0,0,0,5.59,8.71,26.53,26.53,0,0,0,8.45,6,25.55,25.55,0,0,0,10.72,2.21,28.72,28.72,0,0,0,6.24-.71,25.37,25.37,0,0,0,11.64-6,19.19,19.19,0,0,0,4.22-5.53l8.71,4.94a22.87,22.87,0,0,1-5.33,7.09,33.94,33.94,0,0,1-7.67,5.2,41.72,41.72,0,0,1-18.33,4.35A34.4,34.4,0,0,1,658,241.38a37.56,37.56,0,0,1-11.63-8.45A39.56,39.56,0,0,1,638.8,221,35.19,35.19,0,0,1,636.07,207.51Z"/><path class="cls-4" d="M708.87,243.91l32.24-71.63h8.58l32.11,71.63h-11l-9.1-20.15h-32.5l-9.1,20.15Zm36.53-58.76-13.91,29.51h27.56Z"/><path class="cls-4" d="M793.89,243.91V172.28h27.43a45.12,45.12,0,0,1,16.58,2.8,34.42,34.42,0,0,1,11.89,7.6A31.12,31.12,0,0,1,857,194a39.87,39.87,0,0,1,2.4,13.91,38.59,38.59,0,0,1-2.73,14.82A32.86,32.86,0,0,1,849,234.1a33.3,33.3,0,0,1-12,7.28,46.28,46.28,0,0,1-15.67,2.53Zm54.86-36a29.78,29.78,0,0,0-1.82-10.66,23.26,23.26,0,0,0-5.33-8.32,24.27,24.27,0,0,0-8.58-5.46,32.46,32.46,0,0,0-11.7-2h-17v53.17h17a32.54,32.54,0,0,0,11.9-2,24,24,0,0,0,8.58-5.59,23.49,23.49,0,0,0,5.2-8.52A31.58,31.58,0,0,0,848.75,207.9Z"/><path class="cls-4" d="M928.7,234.68v9.23H875.14V172.28h52.52v9.23H885.54v21.58H922.2v8.58H885.54v23Z"/><path class="cls-4" d="M1011.77,243.91V190.74L986,231.17h-5.85l-25.74-40.43v53.17H944V172.28h11.05l28.08,44.85,28.08-44.85h10.92v71.63Z"/><path class="cls-4" d="M1045.7,172.28l23.53,36.53,23.66-36.53h11.44L1074.43,218v25.87H1064v-26l-29.64-45.63Z"/><path class="cls-3" d="M950.55,491.85a61.13,61.13,0,0,0-8.9-.17l0,.66a59,59,0,0,1,8.85.08,65.2,65.2,0,0,1,8.85,2l.13-.64A66.41,66.41,0,0,0,950.55,491.85Z"/><path class="cls-3" d="M950.61,489.7a60.4,60.4,0,0,0-9-.17v.66a58.41,58.41,0,0,1,8.91.08,71.52,71.52,0,0,1,9.28,2l.13-.65A74.07,74.07,0,0,0,950.61,489.7Z"/><rect class="cls-3" x="941.65" y="490.02" width="0.49" height="1.82" transform="translate(-10.52 20.74) rotate(-1.25)"/><rect class="cls-3" x="958.49" y="492.73" width="1.82" height="0.49" transform="translate(243.87 1300.12) rotate(-75.64)"/><rect class="cls-3" x="949.59" y="490.72" width="1.87" height="0.49" transform="translate(362.63 1384.79) rotate(-83.98)"/><rect class="cls-3" x="945.37" y="490.59" width="1.94" height="0.49" transform="translate(405.77 1409.66) rotate(-86.94)"/><rect class="cls-3" x="942.73" y="489.95" width="0.49" height="1.83" transform="translate(-17.66 35.52) rotate(-2.14)"/><rect class="cls-3" x="943.9" y="489.9" width="0.49" height="1.86" transform="translate(-6.2 12.12) rotate(-0.73)"/><rect class="cls-3" x="945.02" y="489.81" width="0.49" height="1.86" transform="translate(-5.77 11.28) rotate(-0.68)"/><rect class="cls-3" x="946.36" y="490.58" width="1.83" height="0.49" transform="translate(377.48 1392.81) rotate(-85.11)"/><rect class="cls-3" x="947.53" y="490.69" width="1.86" height="0.49" transform="translate(355.98 1379.51) rotate(-83.67)"/><rect class="cls-3" x="948.64" y="490.75" width="1.86" height="0.49" transform="translate(357.54 1381.08) rotate(-83.71)"/><rect class="cls-3" x="953.97" y="491.58" width="1.94" height="0.49" transform="translate(300.78 1343.81) rotate(-79.73)"/><rect class="cls-3" x="957.36" y="492.41" width="1.83" height="0.49" transform="matrix(0.26, -0.96, 0.96, 0.26, 231.3, 1287.95)"/><rect class="cls-3" x="956.25" y="492.1" width="1.86" height="0.49" transform="translate(249.68 1303.55) rotate(-76.13)"/><rect class="cls-3" x="955.21" y="491.76" width="1.86" height="0.49" transform="translate(249.23 1302.28) rotate(-76.13)"/><rect class="cls-3" x="952.91" y="491.34" width="1.83" height="0.49" transform="translate(327.96 1363.21) rotate(-81.59)"/><rect class="cls-3" x="951.73" y="491.18" width="1.86" height="0.49" transform="translate(348.6 1376.96) rotate(-82.99)"/><rect class="cls-3" x="950.63" y="490.97" width="1.86" height="0.49" transform="translate(347.85 1375.68) rotate(-82.99)"/><path class="cls-3" d="M950.73,492a34.31,34.31,0,0,0-10.46.33L939,503.41l20.31,2.36,1.29-11.08A31.42,31.42,0,0,0,950.73,492Z"/><path class="cls-3" d="M926.26,569.53l-1.88,16.15a57.19,57.19,0,0,0,30.54,2.87l1.8-15.48Z"/><path class="cls-3" d="M925.08,577.29l-.91,8.31.21.08a57.19,57.19,0,0,0,30.54,2.87l.89-7.67Z"/><path class="cls-3" d="M956.8,572.12l-30.27-3.53a.54.54,0,0,0-.6.48.53.53,0,0,0,.48.6l30.27,3.53a.54.54,0,1,0,.12-1.08Z"/><path class="cls-3" d="M950.59,493.18a34.44,34.44,0,0,0-10.45.32l-1.44,12.32L959,508.18l1.43-12.31A31.26,31.26,0,0,0,950.59,493.18Z"/><path class="cls-3" d="M942.89,495.5l-.19,0a3.29,3.29,0,0,0-2.63,2.66l-1.16,10c-.15,1.26,4.77.48,4.91-.78l1.17-10A1.69,1.69,0,0,0,942.89,495.5Z"/><path class="cls-3" d="M948.44,493.89h-.1a1.21,1.21,0,0,0-1.33,1.05l-1.22,10.49c-.08.66,2.4.94,2.48.29l1.22-10.49A1.21,1.21,0,0,0,948.44,493.89Z"/><path class="cls-3" d="M948.36,494.42h-.06a.73.73,0,0,0-.82.65l-.41,3.56,1.52.18.41-3.57A.72.72,0,0,0,948.36,494.42Z"/><path class="cls-3" d="M958.87,496.28l-.09,0a.88.88,0,0,0-1.29.71l-1.22,10.49c-.08.66,2.31,1.65,2.39,1L959.88,498A1.72,1.72,0,0,0,958.87,496.28Z"/><path class="cls-3" d="M953.56,496.7l-.19-.06a1.83,1.83,0,0,0-2.49,1.57l-1.17,10c-.15,1.26,4.51,2.73,4.65,1.47l1.17-10A2.91,2.91,0,0,0,953.56,496.7Z"/><path class="cls-3" d="M953.43,497.56l-.13,0a1.26,1.26,0,0,0-1.7,1.08l-.79,6.79c-.1.86,3.06,1.86,3.16,1l.8-6.79A2,2,0,0,0,953.43,497.56Z"/><path class="cls-3" d="M942.76,496.39l-.13,0a2.22,2.22,0,0,0-1.79,1.81l-.79,6.79c-.1.86,3.24.33,3.34-.53l.79-6.79A1.14,1.14,0,0,0,942.76,496.39Z"/><path class="cls-3" d="M958.79,496.8l-.06,0a.54.54,0,0,0-.79.44l-.42,3.57,1.48.61.41-3.57A1,1,0,0,0,958.79,496.8Z"/><path class="cls-3" d="M948.87,506.49A115.48,115.48,0,0,0,935,506l-.08,10.1,25.69,3,2.25-9.84A126.07,126.07,0,0,0,948.87,506.49Z"/><path class="cls-3" d="M949,507.58c-.6-.07-1.16.51-1.25,1.3l-1,8.55,2.17.26,1-8.55A1.31,1.31,0,0,0,949,507.58Z"/><path class="cls-3" d="M942.63,507.12c-.54,0-1,.56-1.08,1.33l-.61,8.3,1.94.23.62-8.41C943.56,507.8,943.17,507.15,942.63,507.12Z"/><path class="cls-3" d="M945.87,507.36c-.59-.05-1.12.53-1.2,1.31l-.82,8.42,2.11.25.83-8.47C946.86,508.09,946.45,507.41,945.87,507.36Z"/><path class="cls-3" d="M937,507.29c-.38,0-.72.55-.76,1.26l-.39,7.62,1.38.16.39-7.73C937.7,507.89,937.42,507.3,937,507.29Z"/><path class="cls-3" d="M939.77,507.23c-.47,0-.9.54-1,1.27l-.64,7.93,1.71.2.65-8C940.59,507.89,940.25,507.27,939.77,507.23Z"/><path class="cls-3" d="M955.29,508.59c-.53-.08-1,.47-1.16,1.24l-1.21,8.32,1.94.23,1.2-8.26C956.17,509.36,955.83,508.67,955.29,508.59Z"/><path class="cls-3" d="M952.16,508.09c-.58-.08-1.14.48-1.24,1.26l-1.14,8.43,2.11.25,1.13-8.38A1.3,1.3,0,0,0,952.16,508.09Z"/><path class="cls-3" d="M960.83,510.06c-.38-.07-.78.43-.91,1.13l-1.4,7.61,1.38.16,1.37-7.49C961.4,510.77,961.2,510.14,960.83,510.06Z"/><path class="cls-3" d="M958.05,509.36c-.47-.07-.94.47-1,1.2l-1.08,7.94,1.71.2,1.08-7.9C958.82,510.07,958.52,509.43,958.05,509.36Z"/><path class="cls-3" d="M949,505.6a96.31,96.31,0,0,0-14-.28l0,1a93.08,93.08,0,0,1,13.93.15,99.71,99.71,0,0,1,13.93,3.1l.21-1A104.15,104.15,0,0,0,949,505.6Z"/><path class="cls-3" d="M949.08,502.23A97.55,97.55,0,0,0,935,502l0,1a92.84,92.84,0,0,1,14,.15,111.61,111.61,0,0,1,14.61,3.19l.22-1A120.59,120.59,0,0,0,949.08,502.23Z"/><rect class="cls-3" x="934.98" y="502.72" width="0.77" height="2.84" transform="translate(-9.02 17.1) rotate(-1.04)"/><rect class="cls-3" x="961.5" y="506.97" width="2.84" height="0.77" transform="translate(231.91 1313.74) rotate(-75.59)"/><rect class="cls-3" x="947.48" y="503.84" width="2.92" height="0.77" transform="matrix(0.1, -0.99, 0.99, 0.1, 348.11, 1395.14)"/><rect class="cls-3" x="940.83" y="503.6" width="3.02" height="0.77" transform="translate(389.59 1418.57) rotate(-86.99)"/><rect class="cls-3" x="936.67" y="502.61" width="0.77" height="2.86" transform="translate(-17.26 33.49) rotate(-2.03)"/><rect class="cls-3" x="938.52" y="502.54" width="0.77" height="2.9" transform="translate(-6.17 11.67) rotate(-0.71)"/><rect class="cls-3" x="940.27" y="502.41" width="0.77" height="2.9" transform="translate(-5.33 10.09) rotate(-0.61)"/><rect class="cls-3" x="942.4" y="503.6" width="2.86" height="0.77" transform="translate(361.03 1401.29) rotate(-85.1)"/><rect class="cls-3" x="944.23" y="503.77" width="2.9" height="0.77" transform="translate(341.26 1389.12) rotate(-83.73)"/><rect class="cls-3" x="945.99" y="503.86" width="2.9" height="0.77" transform="translate(342.29 1390.64) rotate(-83.7)"/><rect class="cls-3" x="954.37" y="505.18" width="3.03" height="0.77" transform="translate(287.88 1355.89) rotate(-79.72)"/><rect class="cls-3" x="959.73" y="506.46" width="2.86" height="0.77" transform="translate(218.34 1299.9) rotate(-74.68)"/><rect class="cls-3" x="957.97" y="506.01" width="2.9" height="0.77" transform="translate(236.75 1315.51) rotate(-76.06)"/><rect class="cls-3" x="956.34" y="505.47" width="2.9" height="0.77" transform="translate(236.21 1313.67) rotate(-76.07)"/><rect class="cls-3" x="952.72" y="504.8" width="2.86" height="0.77" transform="translate(315.22 1375.46) rotate(-81.61)"/><rect class="cls-3" x="950.86" y="504.55" width="2.9" height="0.77" transform="translate(334.98 1388.53) rotate(-82.99)"/><rect class="cls-3" x="949.13" y="504.22" width="2.9" height="0.77" transform="translate(333.6 1386.4) rotate(-82.98)"/><path class="cls-3" d="M947.61,517.27a128.46,128.46,0,0,0-14.38-.59l0,10.11,26.62,3.1,2.28-9.84A136.31,136.31,0,0,0,947.61,517.27Z"/><path class="cls-3" d="M947.71,516.39a102.62,102.62,0,0,0-14.51-.34l0,1a101.06,101.06,0,0,1,14.43.2,106.55,106.55,0,0,1,14.44,3.17l.22-1A111.67,111.67,0,0,0,947.71,516.39Z"/><path class="cls-3" d="M947.78,518.37a1.31,1.31,0,0,0-1.29,1.3l-1,8.55,2.25.26,1-8.55A1.3,1.3,0,0,0,947.78,518.37Z"/><path class="cls-3" d="M941.15,517.88c-.56,0-1.06.56-1.11,1.33l-.6,8.3,2,.24.6-8.41C942.11,518.57,941.7,517.91,941.15,517.88Z"/><path class="cls-3" d="M944.5,518.13a1.3,1.3,0,0,0-1.23,1.31l-.82,8.42,2.19.26.82-8.47A1.3,1.3,0,0,0,944.5,518.13Z"/><path class="cls-3" d="M935.36,518c-.4,0-.75.55-.78,1.26l-.38,7.61,1.43.17.38-7.73C936,518.63,935.75,518,935.36,518Z"/><path class="cls-3" d="M938.19,518c-.49,0-.94.53-1,1.27l-.64,7.93,1.78.2.64-8C939,518.64,938.68,518,938.19,518Z"/><path class="cls-3" d="M954.27,519.4c-.55-.08-1.09.47-1.2,1.24L951.85,529l2,.23,1.21-8.25A1.28,1.28,0,0,0,954.27,519.4Z"/><path class="cls-3" d="M951,518.89a1.29,1.29,0,0,0-1.28,1.26l-1.15,8.43,2.19.25,1.14-8.38A1.31,1.31,0,0,0,951,518.89Z"/><path class="cls-3" d="M960,520.9c-.38-.08-.8.43-.93,1.13l-1.41,7.61,1.42.16,1.39-7.49C960.6,521.61,960.39,521,960,520.9Z"/><path class="cls-3" d="M957.13,520.19c-.49-.07-1,.46-1.07,1.2L955,529.32l1.77.21,1.09-7.89C957.93,520.9,957.61,520.25,957.13,520.19Z"/><path class="cls-3" d="M946.36,527.93a129.51,129.51,0,0,0-14.63-.61v10.1l27.07,3.16,2.31-9.84A138.35,138.35,0,0,0,946.36,527.93Z"/><path class="cls-3" d="M946.47,527.05a106.93,106.93,0,0,0-14.77-.37v1a104.56,104.56,0,0,1,14.67.23,109.86,109.86,0,0,1,14.7,3.2l.22-1A114.84,114.84,0,0,0,946.47,527.05Z"/><path class="cls-3" d="M946.54,529a1.32,1.32,0,0,0-1.31,1.3l-1,8.55,2.29.26,1-8.55A1.32,1.32,0,0,0,946.54,529Z"/><path class="cls-3" d="M939.79,528.53c-.57,0-1.07.55-1.13,1.33l-.59,8.3,2,.24.6-8.41C940.77,529.22,940.36,528.56,939.79,528.53Z"/><path class="cls-3" d="M943.2,528.79A1.31,1.31,0,0,0,942,530.1l-.81,8.42,2.22.26.82-8.48A1.29,1.29,0,0,0,943.2,528.79Z"/><path class="cls-3" d="M933.9,528.67c-.4,0-.76.54-.79,1.25l-.36,7.62,1.45.17.37-7.73C934.6,529.27,934.3,528.68,933.9,528.67Z"/><path class="cls-3" d="M936.78,528.62c-.5,0-.95.53-1,1.27l-.63,7.93,1.8.21.64-8C937.64,529.29,937.28,528.66,936.78,528.62Z"/><path class="cls-3" d="M953.14,530.08c-.56-.09-1.11.46-1.22,1.23l-1.22,8.32,2,.24,1.21-8.25C954.07,530.85,953.71,530.16,953.14,530.08Z"/><path class="cls-3" d="M949.83,529.56a1.3,1.3,0,0,0-1.3,1.25l-1.14,8.44,2.22.26,1.14-8.39A1.3,1.3,0,0,0,949.83,529.56Z"/><path class="cls-3" d="M959,531.59c-.39-.08-.82.43-1,1.12l-1.42,7.61,1.45.17,1.4-7.49C959.59,532.3,959.38,531.67,959,531.59Z"/><path class="cls-3" d="M956.05,530.87c-.5-.07-1,.46-1.08,1.2l-1.1,7.93,1.81.21,1.09-7.89C956.87,531.59,956.55,530.94,956.05,530.87Z"/><path class="cls-3" d="M945.16,538.21a143.36,143.36,0,0,0-15.26-.69l0,10.11,28.24,3.29,2.36-9.83A152.84,152.84,0,0,0,945.16,538.21Z"/><path class="cls-3" d="M945.26,537.33a115.3,115.3,0,0,0-15.39-.45v1a112.83,112.83,0,0,1,15.3.3,120.21,120.21,0,0,1,15.33,3.27l.22-1A125.35,125.35,0,0,0,945.26,537.33Z"/><path class="cls-3" d="M945.34,539.31A1.34,1.34,0,0,0,944,540.6l-1,8.55,2.38.28,1-8.55A1.34,1.34,0,0,0,945.34,539.31Z"/><path class="cls-3" d="M938.31,538.77c-.59,0-1.11.56-1.17,1.33l-.58,8.31,2.14.24.58-8.41A1.26,1.26,0,0,0,938.31,538.77Z"/><path class="cls-3" d="M941.87,539.05a1.32,1.32,0,0,0-1.3,1.31l-.8,8.42,2.31.27.81-8.47A1.32,1.32,0,0,0,941.87,539.05Z"/><path class="cls-3" d="M932.17,538.88c-.42,0-.78.55-.82,1.26l-.34,7.62,1.51.18.35-7.74C932.9,539.49,932.59,538.9,932.17,538.88Z"/><path class="cls-3" d="M935.18,538.86c-.53,0-1,.52-1.06,1.26l-.62,7.93,1.89.22.63-8C936.07,539.53,935.7,538.9,935.18,538.86Z"/><path class="cls-3" d="M952.24,540.39a1.27,1.27,0,0,0-1.27,1.23l-1.23,8.32,2.13.25,1.22-8.25A1.28,1.28,0,0,0,952.24,540.39Z"/><path class="cls-3" d="M948.78,539.86a1.3,1.3,0,0,0-1.34,1.25l-1.16,8.43,2.32.27,1.15-8.39A1.32,1.32,0,0,0,948.78,539.86Z"/><path class="cls-3" d="M958.33,541.93c-.41-.08-.86.42-1,1.12l-1.44,7.61,1.51.17,1.42-7.49C959,542.64,958.74,542,958.33,541.93Z"/><path class="cls-3" d="M955.27,541.19c-.52-.07-1,.47-1.12,1.2L953,550.33l1.89.22,1.09-7.9C956.13,541.92,955.79,541.27,955.27,541.19Z"/><path class="cls-3" d="M943.93,548.75A149.86,149.86,0,0,0,928.3,548l.06,10.12,28.94,3.37,2.39-9.83C958.67,551.43,950.52,549.52,943.93,548.75Z"/><path class="cls-3" d="M944,547.86a122.65,122.65,0,0,0-15.77-.49v1a116.3,116.3,0,0,1,15.68.35,127.37,127.37,0,0,1,15.71,3.31l.23-1A131.76,131.76,0,0,0,944,547.86Z"/><path class="cls-3" d="M944.12,549.85a1.36,1.36,0,0,0-1.39,1.29l-1,8.55,2.44.28,1-8.55A1.34,1.34,0,0,0,944.12,549.85Z"/><path class="cls-3" d="M936.91,549.29a1.28,1.28,0,0,0-1.19,1.32l-.57,8.31,2.19.25.57-8.41A1.27,1.27,0,0,0,936.91,549.29Z"/><path class="cls-3" d="M940.56,549.58a1.33,1.33,0,0,0-1.33,1.3l-.8,8.42,2.38.28.8-8.48A1.32,1.32,0,0,0,940.56,549.58Z"/><path class="cls-3" d="M930.62,549.38c-.43,0-.8.54-.83,1.26l-.33,7.62,1.55.18.34-7.74C931.38,550,931.05,549.4,930.62,549.38Z"/><path class="cls-3" d="M933.7,549.36c-.53,0-1,.52-1.07,1.26l-.61,7.93,1.93.23.62-8C934.62,550,934.24,549.4,933.7,549.36Z"/><path class="cls-3" d="M951.18,551a1.27,1.27,0,0,0-1.29,1.22l-1.24,8.32,2.19.25,1.22-8.25A1.27,1.27,0,0,0,951.18,551Z"/><path class="cls-3" d="M947.65,550.41a1.31,1.31,0,0,0-1.38,1.24l-1.16,8.43,2.37.28,1.16-8.39A1.32,1.32,0,0,0,947.65,550.41Z"/><path class="cls-3" d="M957.43,552.5c-.42-.08-.88.42-1,1.12L955,561.23l1.55.18,1.44-7.49C958.08,553.22,957.85,552.59,957.43,552.5Z"/><path class="cls-3" d="M954.29,551.76c-.53-.08-1,.46-1.15,1.19l-1.1,7.94,1.93.22,1.1-7.89C955.17,552.49,954.82,551.83,954.29,551.76Z"/><path class="cls-3" d="M942.68,559.41a149.61,149.61,0,0,0-15.62-.74l.06,10.12,28.94,3.37,2.38-9.83C957.43,562.09,949.28,560.18,942.68,559.41Z"/><path class="cls-3" d="M942.79,558.52A121.76,121.76,0,0,0,927,558v1a116.15,116.15,0,0,1,15.67.35,127.23,127.23,0,0,1,15.72,3.31l.22-1A131.39,131.39,0,0,0,942.79,558.52Z"/><path class="cls-3" d="M942.88,560.51a1.35,1.35,0,0,0-1.39,1.29l-1,8.55,2.45.28,1-8.55A1.35,1.35,0,0,0,942.88,560.51Z"/><path class="cls-3" d="M935.67,560a1.27,1.27,0,0,0-1.19,1.32l-.57,8.31,2.18.26.58-8.42A1.27,1.27,0,0,0,935.67,560Z"/><path class="cls-3" d="M939.32,560.24a1.32,1.32,0,0,0-1.33,1.3l-.8,8.42,2.38.28.8-8.48A1.32,1.32,0,0,0,939.32,560.24Z"/><path class="cls-3" d="M929.38,560c-.43,0-.8.55-.83,1.26l-.33,7.62,1.55.18.33-7.74C930.13,560.65,929.81,560.06,929.38,560Z"/><path class="cls-3" d="M932.46,560c-.53,0-1,.53-1.07,1.26l-.62,7.93,1.94.23.61-8A1.21,1.21,0,0,0,932.46,560Z"/><path class="cls-3" d="M949.94,561.61a1.27,1.27,0,0,0-1.29,1.22l-1.24,8.32,2.18.26,1.23-8.26A1.28,1.28,0,0,0,949.94,561.61Z"/><path class="cls-3" d="M946.4,561.07a1.32,1.32,0,0,0-1.38,1.24l-1.15,8.43,2.37.28,1.15-8.39A1.31,1.31,0,0,0,946.4,561.07Z"/><path class="cls-3" d="M956.19,563.17c-.43-.08-.88.42-1,1.11l-1.46,7.61,1.55.18,1.44-7.49C956.84,563.88,956.61,563.25,956.19,563.17Z"/><path class="cls-3" d="M953.05,562.42c-.53-.07-1,.46-1.15,1.19l-1.1,7.94,1.93.22,1.1-7.89C953.93,563.15,953.58,562.49,953.05,562.42Z"/><polygon class="cls-3" points="947.93 480.71 947.85 484.18 953.36 483.27 947.93 480.71"/><path class="cls-3" d="M937.54,572.57a4.15,4.15,0,0,0-4.32,3.49l-.39,3.38,7.6.88.4-3.38A4,4,0,0,0,937.54,572.57Z"/><path class="cls-3" d="M931.06,571.82c-2-.23-3.65,1.77-3.86,3.54l-.39,3.37,6.69.78.39-3.38C934.1,574.37,933,572.05,931.06,571.82Z"/><path class="cls-3" d="M927,571.35c-.73-.09-1.52,2-1.72,3.78l-.4,3.38,2.5.29.39-3.38C928,573.65,927.74,571.43,927,571.35Z"/><path class="cls-3" d="M944.52,573.39a4.16,4.16,0,0,0-4.36,3.47l-.4,3.38,7.7.9.39-3.38A4,4,0,0,0,944.52,573.39Z"/><path class="cls-3" d="M951,574.14c-1.9-.22-3.56,1.78-3.77,3.54l-.39,3.38,6.51.76.39-3.38C953.9,576.67,952.85,574.36,951,574.14Z"/><path class="cls-3" d="M955,574.61c-.88-.1-1.79,2-2,3.75l-.39,3.38,3,.36.39-3.38C956.27,577,955.91,574.72,955,574.61Z"/><path class="cls-3" d="M937.33,573.65a2.94,2.94,0,0,0-3.33,2.49l-1.4,12a56.56,56.56,0,0,0,6,1l1.43-12.26A3,3,0,0,0,937.33,573.65Z"/><path class="cls-3" d="M930.85,572.9a2.78,2.78,0,0,0-3,2.53l-1.29,11q2.56.85,5.24,1.48l1.39-11.9A2.83,2.83,0,0,0,930.85,572.9Z"/><path class="cls-3" d="M926.85,572.43c-.48,0-.89.8-1.13,1.76l-1.34,11.49c.62.24,1.24.46,1.87.67l1.28-11C927.67,574.14,927.5,572.51,926.85,572.43Z"/><path class="cls-3" d="M944.31,574.47a3,3,0,0,0-3.37,2.48l-1.43,12.24c.69.06,1.37.13,2.06.17,1.39.08,2.77.09,4.13.07l1.37-11.77A3,3,0,0,0,944.31,574.47Z"/><path class="cls-3" d="M950.74,575.22a2.76,2.76,0,0,0-2.9,2.53l-1.35,11.66c1.79,0,3.55-.18,5.3-.39L953,578.36A2.79,2.79,0,0,0,950.74,575.22Z"/><path class="cls-3" d="M954.86,575.7c-.78-.1-1.38,1.44-1.53,2.69L952.1,589c.84-.11,1.67-.23,2.5-.38l1.16-9.92C955.9,577.43,955.65,575.79,954.86,575.7Z"/><polygon class="cls-3" points="937.17 575.49 935.5 576.94 936.8 578.73 938.46 577.28 937.17 575.49"/><polygon class="cls-3" points="937.1 576.13 936.08 577.01 936.87 578.09 937.88 577.22 937.1 576.13"/><polygon class="cls-3" points="930.69 574.74 929.2 576.2 930.31 577.97 931.8 576.51 930.69 574.74"/><polygon class="cls-3" points="930.62 575.37 929.71 576.26 930.39 577.34 931.29 576.45 930.62 575.37"/><polygon class="cls-3" points="926.66 574.27 925.99 575.83 926.28 577.5 926.96 575.94 926.66 574.27"/><polygon class="cls-3" points="926.59 574.9 926.18 575.85 926.36 576.87 926.77 575.92 926.59 574.9"/><polygon class="cls-3" points="944.15 576.3 942.47 577.75 943.77 579.54 945.46 578.1 944.15 576.3"/><polygon class="cls-3" points="944.08 576.94 943.05 577.82 943.85 578.91 944.88 578.03 944.08 576.94"/><polygon class="cls-3" points="950.58 577.05 949.13 578.52 950.2 580.29 951.66 578.82 950.58 577.05"/><polygon class="cls-3" points="950.51 577.69 949.62 578.58 950.28 579.66 951.16 578.76 950.51 577.69"/><polygon class="cls-3" points="954.67 577.53 953.89 579.08 954.3 580.77 955.08 579.22 954.67 577.53"/><polygon class="cls-3" points="954.6 578.16 954.13 579.11 954.37 580.13 954.85 579.19 954.6 578.16"/><path class="cls-3" d="M1086.09,564.85a4.63,4.63,0,0,1,.37,2.49,18.94,18.94,0,0,0,0,2.26,8.79,8.79,0,0,0,.21,1.23,2.7,2.7,0,0,0,.2-.56,23.36,23.36,0,0,0,1-3.68,6.62,6.62,0,0,0-.55-4.21c-.9-4.17,1.92-6.66,4.2-9.6,0,1.49-.06,3-.07,4.45a36.82,36.82,0,0,1-.85,7.76,12,12,0,0,0-.17,4.43,7.1,7.1,0,0,1,0,2.56c-.61,2.8-.85,5.66-1.3,8.49a.58.58,0,0,0,.24.62c.57.49.66.76.27,1.52a2,2,0,0,0-.19.48.38.38,0,0,0,.21.47,1.26,1.26,0,0,0,.86.2c.43-.07.85-.18,1.27-.26.22,0,.27-.17.2-.35a.64.64,0,0,0-.13-.26c-.26-.28-.54-.55-.82-.82a.87.87,0,0,1-.3-.71c0-.51,0-1,0-1.54.06-1.67.11-3.35.21-5,.13-2,.34-4.1.67-6.13a4.09,4.09,0,0,1,.27-1.16,6.91,6.91,0,0,0,.53-1.65,15.58,15.58,0,0,1,.88-3.21,19.16,19.16,0,0,1,2.68-4.45,7.76,7.76,0,0,0,.49-.68,1.7,1.7,0,0,0,.29.36.53.53,0,0,0,0,.25,17.36,17.36,0,0,1,.74,4,10.49,10.49,0,0,1-.49,4,.7.7,0,0,0,0,.35,41.9,41.9,0,0,0,1.6,5.48,58.12,58.12,0,0,1,2.86,9.24.26.26,0,0,0,.27.23c.19,0,.39.08.58.13a.61.61,0,0,1,.4,1c-.2.28-.17.34.13.52a.85.85,0,0,0,.22.09,5,5,0,0,0,1.89-.08c.12,0,.16-.1.1-.23-.37-.87-.66-1.06-1.6-1l0,0a2.13,2.13,0,0,0-.17-1.67c-.23-.48-.44-1-.65-1.48a33.32,33.32,0,0,1-2.71-8.72,15,15,0,0,1-.15-3.66,3.35,3.35,0,0,1,.67-1.83,1.69,1.69,0,0,0,.28-.66,19.33,19.33,0,0,1,1.16-3.72c.19-.46.4-.92.61-1.4a1.25,1.25,0,0,0,.49-.33l.06-.08h.49a9.72,9.72,0,0,0,3-.18h.07a6.35,6.35,0,0,0,2.84-1.11,11.11,11.11,0,0,0,1.44-1,7.85,7.85,0,0,0-.47,1.39,10.82,10.82,0,0,0-.07,3.06c.09.88.16,1.77.21,2.65a12.62,12.62,0,0,1-.36,3.18,8.21,8.21,0,0,0-.15,2.66c.06.47.14.93.19,1.4a24,24,0,0,1,0,4c-.1,1.52-.31,3-.28,4.58a16.24,16.24,0,0,0,.62,4.7.68.68,0,0,1,0,.42c-.11.3,0,.42.3.41s.39,0,.59,0a3.49,3.49,0,0,1-.41.33.34.34,0,0,0-.11.24.32.32,0,0,0,.19.17,1.51,1.51,0,0,0,.43.11,5.59,5.59,0,0,0,1.87.06c0-.94,0-.94-.7-1.56a1.21,1.21,0,0,1-.34-.52c-.12-.4-.18-.82-.29-1.22a11.9,11.9,0,0,1-.49-2.84c0-1.07,0-2.14.07-3.2.14-1.69.31-3.38.54-5.06s.54-3.28.84-4.92c.33-1.88.65-3.75,1-5.61.32-1.61.73-3.2,1.1-4.8l.06-.26c.05,0,.07.06.07.09.11,1.75.26,3.49.32,5.23,0,.87-.13,1.75-.15,2.63-.07,2.13-.11,4.25-.15,6.38,0,.69,0,1.38,0,2.06.14,1.74.29,3.48.47,5.22.15,1.5.36,3,.54,4.5a.36.36,0,0,0,.34.36,1,1,0,0,1,.74.72,2.72,2.72,0,0,1,.11,1.44c.3.08.59.16.87.22s.81.19,1.22.24a.34.34,0,0,0,.43-.39,1.36,1.36,0,0,0-.14-.7,2.71,2.71,0,0,0-1.56-1.08l-.45-.09c0-.15,0-.27,0-.4-.12-1.07-.26-2.12-.36-3.19-.12-1.38-.22-2.77-.32-4.16-.06-.91-.11-1.82-.12-2.73s.06-1.61.09-2.42a64,64,0,0,1,.52-6.78,21.12,21.12,0,0,1,1.11-4.63,10.15,10.15,0,0,0,.5-1.5,38.53,38.53,0,0,0,.62-4.91,12.63,12.63,0,0,1,.2-1.84,11.53,11.53,0,0,1,.6-1.77,2.06,2.06,0,0,0,.09-1.12,5.33,5.33,0,0,0-1-2.21c-.2-.31-.42-.61-.61-.93a.35.35,0,0,1,0-.28c.26-.59.51-1.18.81-1.74,1.13-2.07,2.24-4.15,3.41-6.19a33.87,33.87,0,0,0,3.47-8.48c.5-1.92.86-3.86,1.21-5.81s.85-3.95,1.3-5.93a15.65,15.65,0,0,1,.46-1.62c0-.15.24-.35.37-.36a6.15,6.15,0,0,1,1.42.06,7,7,0,0,0,2.89,0,3.91,3.91,0,0,1,1.08-.09c.81,0,1.61.11,2.42.2a2,2,0,0,0,1.51-.49,3.19,3.19,0,0,0-.46-.55,13.35,13.35,0,0,0-1.38-1c-.83-.49-1.68-.93-2.53-1.4a3.24,3.24,0,0,1-1.58-1.58,1.26,1.26,0,0,0-1.35-.76,4.07,4.07,0,0,1-1.39,0,1.26,1.26,0,0,1-.66-.41,2.23,2.23,0,0,1-.39-1.25c-.08-.61-.18-.7-.8-.71h-.08a.8.8,0,0,0-.79.29.53.53,0,0,0,0,.78,4.87,4.87,0,0,0,.75.46,2.6,2.6,0,0,1,1.08.94.83.83,0,0,1-1.08.54,2.61,2.61,0,0,1-.73-.24.5.5,0,0,0-.67.14c-.58.67-1.18,1.32-1.73,2a11.73,11.73,0,0,0-2,3.65c-.41,1.22-.74,2.47-1.1,3.7a27.74,27.74,0,0,1-2.94,7.1,13.17,13.17,0,0,1-1,1.38,44.16,44.16,0,0,1-5.41,5.27c-1.67,1.42-3.44,2.72-5.16,4.06-.23.18-.5.31-.7.5s-.47.58-.73.85c-.59.63-1.18,1.25-1.79,1.85a3.2,3.2,0,0,1-.72.55,22.14,22.14,0,0,1-5,1.88,13.07,13.07,0,0,0-4.26,1.9,4.63,4.63,0,0,0-1,.8,9.39,9.39,0,0,0-1.33,2.43,25.53,25.53,0,0,0-.74,2.69.84.84,0,0,0-.09.19c-1,2.71-3.38,4.58-5,6.89a8,8,0,0,0-1.48,4.85,3.1,3.1,0,0,0-.15,2.18A12.19,12.19,0,0,0,1086.09,564.85Z"/></g></svg>