<?xml version="1.0" encoding="utf-8"?>
<!-- Generator: Adobe Illustrator 18.1.1, SVG Export Plug-In . SVG Version: 6.00 Build 0)  -->
<svg version="1.1" id="Layer_1" xmlns="http://www.w3.org/2000/svg" xmlns:xlink="http://www.w3.org/1999/xlink" x="0px" y="0px"
	 viewBox="0 0 612 792" enable-background="new 0 0 612 792" xml:space="preserve">
<g>
	<path fill="#469DCC" d="M247.7,598c4.9-4.9,10.9-9.8,15.8-15.4c16.5-18.2,28.7-39.2,35-63c8.1-31.1,1.1-59.9-18.2-85
		c-9.8-13-20.3-25.2-27.7-39.2c-10.8-21.4-17.8-43.4-15.8-67.9c1.8-31.9,13.3-58.8,35.3-81.2c18.2-18.9,41.7-32.9,66.2-44.8
		c35.3-16.5,73.5-27,112.7-31.9c18.9-2.5,38.5-3.5,58.1-4.2c22.8-0.7,45.9-0.7,68.6-0.7c0.7,0,1.8,0,3.2,0
		c-13,85.8-26.2,170.1-39.2,255.5c-6.6-1.8-12.2-3.5-17.9-4.9c-11.5-3.1-23.1-6.6-35-9.8c-2.4-0.7-3.5-1.8-3.1-4.9
		c4.2-24.5,8.1-49,11.6-73.5c4.2-27,8.4-53.9,12.9-81.2c1.1-6.6,1.8-13.3,3.1-20.3c0-0.7,0-1.8,0-2.5c-6.6,0-12.9-0.7-18.9,0
		c-23.1,1-46.6,4.2-68.9,9.8c-36.1,8.4-69.7,22-99.8,43.4c-16.4,11.5-26.9,27.6-30.1,47.6c-1.8,14,1.1,27.6,7.4,40.2
		c5.6,11.5,14,22,22.1,31.9c17.8,22,30.1,47.2,34.3,76c3.2,18.9,1.8,38.5-2.4,57.4c0,0.7,0,1.8-0.7,3.1c23.1-8,47.2-14,71.4-17.1
		c5.6,18.9,10.5,37.5,15.8,56.4c-5.9,1-12.2,1.8-18.2,3.1c-37.8,6.6-73.5,18.9-105.4,40.2c-5.9,4.2-12.9,8-19.6,11.5
		c-1.1,0.7-2.5,0.7-3.5,0C279.9,617.6,264.5,608.2,247.7,598z"/>
	<path fill="#FFFFFF" d="M128.3,512.3c34.3,1,66.2,6.6,98,16.5c10.8,3.5,22.1,8,34.3,12.2c-4.9,7.4-9.1,14-14,19.6
		c-8.1,9.1-16.5,17.1-25.2,25.5c-0.7,0.7-2.4,0.7-3.5,0.7c-28.7-9.1-58.1-15.4-88.2-15.8c-14-0.7-27.7,0.7-41.7,1
		c-1.8,0-4.2,0-6.6,0C56.2,437,36.3,301.2,15.3,164.7c1.7,0,3.2,0,4.2,0c20.3,0,41,0,61.3,0c54.9,0.7,108.8,8.4,160.3,29.4
		c10.5,4.2,20.6,9.1,31.1,14c-8.1,7.4-15.4,14-22.1,21.4s-12.9,15.4-18.9,23.8c-22.8-10.5-47.2-17.9-71.4-22.8
		c-25.2-4.9-50-7.4-76.3-8C97.5,319.8,112.9,416.4,128.3,512.3z"/>
	<path fill="#FFFFFF" d="M596.6,464.7c-17.9,10.9-35.4,21.4-52.5,31.9c17.9,17.9,36,36,53.9,53.9c-13.3,12.2-25.5,24.5-38.5,37.5
		c-17.9-17.8-35.4-35.3-53.9-53.9c-10.5,17.9-20.6,35-31.9,52.5c-16.4-57.4-32.6-113.8-49-171.1
		C482.5,431.4,539.2,448.2,596.6,464.7z"/>
</g>
</svg>
