<?xml version="1.0" encoding="utf-8"?>
<!-- Generator: Adobe Illustrator 18.1.1, SVG Export Plug-In . SVG Version: 6.00 Build 0)  -->
<svg version="1.0" id="Layer_1" xmlns="http://www.w3.org/2000/svg" xmlns:xlink="http://www.w3.org/1999/xlink" x="0px" y="0px"
	 viewBox="0 0 350.2 77.6" enable-background="new 0 0 350.2 77.6" xml:space="preserve">
<g>
	<path fill="#469DCC" d="M39,71.8c0.8-0.8,1.8-1.6,2.6-2.5c2.7-3,4.7-6.4,5.7-10.3c1.3-5.1,0.2-9.8-3-13.9c-1.6-2.1-3.3-4.1-4.5-6.4
		c-1.8-3.5-2.9-7.1-2.6-11.1c0.3-5.2,2.2-9.6,5.8-13.3C46,11.2,49.8,8.9,53.8,7c5.8-2.7,12-4.4,18.4-5.2c3.1-0.4,6.3-0.6,9.5-0.7
		C85.4,1,89.2,1,92.9,1c0.1,0,0.3,0,0.5,0C91.3,15,89.1,28.8,87,42.8c-1.1-0.3-2-0.6-2.9-0.8c-1.9-0.5-3.8-1.1-5.7-1.6
		c-0.4-0.1-0.6-0.3-0.5-0.8c0.7-4,1.3-8,1.9-12c0.7-4.4,1.4-8.8,2.1-13.3c0.2-1.1,0.3-2.2,0.5-3.3c0-0.1,0-0.3,0-0.4
		c-1.1,0-2.1-0.1-3.1,0c-3.8,0.2-7.6,0.7-11.3,1.6c-5.9,1.4-11.4,3.6-16.3,7.1c-2.7,1.9-4.4,4.5-4.9,7.8c-0.3,2.3,0.2,4.5,1.2,6.6
		c0.9,1.9,2.3,3.6,3.6,5.2c2.9,3.6,4.9,7.7,5.6,12.4c0.5,3.1,0.3,6.3-0.4,9.4c0,0.1,0,0.3-0.1,0.5c3.8-1.3,7.7-2.3,11.7-2.8
		c0.9,3.1,1.7,6.1,2.6,9.2c-1,0.2-2,0.3-3,0.5c-6.2,1.1-12,3.1-17.2,6.6c-1,0.7-2.1,1.3-3.2,1.9c-0.2,0.1-0.4,0.1-0.6,0
		C44.3,75,41.8,73.5,39,71.8z"/>
	<path fill="#FFFFFF" d="M19.5,57.8c5.6,0.2,10.8,1.1,16,2.7c1.8,0.6,3.6,1.3,5.6,2c-0.8,1.2-1.5,2.3-2.3,3.2
		c-1.3,1.5-2.7,2.8-4.1,4.2C34.6,70,34.3,70,34.1,70c-4.7-1.5-9.5-2.5-14.4-2.6c-2.3-0.1-4.5,0.1-6.8,0.2c-0.3,0-0.7,0-1.1,0
		C7.7,45.5,4.4,23.3,1,1c0.3,0,0.5,0,0.7,0c3.3,0,6.7,0,10,0c9,0.1,17.8,1.4,26.2,4.8c1.7,0.7,3.4,1.5,5.1,2.3
		c-1.3,1.2-2.5,2.3-3.6,3.5c-1.1,1.2-2.1,2.5-3.1,3.9c-3.7-1.7-7.7-2.9-11.7-3.7c-4.1-0.8-8.2-1.2-12.5-1.3
		C14.5,26.3,17,42.1,19.5,57.8z"/>
	<path fill="#FFFFFF" d="M339.8,22.5c0-0.8,0-1.6,0-2.4c2.9,0,5.8,0,8.8,0c0,0.2,0,0.4,0,0.7c0,8.9,0,17.7,0,26.6
		c0,2.2-0.2,4.3-0.9,6.4c-1,2.9-3,4.8-5.6,6.3c-3.6,2.1-7.6,2.8-11.8,2.5c-3-0.2-5.7-0.9-8.2-2.6c-2.6-1.8-4.3-4.3-4.9-7.4
		c0-0.1,0-0.2,0-0.3c0.2,0,0.5,0,0.7,0c3,0,6,0,9,0c0.2,0,0.5,0.1,0.6,0.2c1.2,2.1,3,2.7,5.3,2.7c3.1,0,5.6-1.8,6.5-4.5
		c0.5-1.4,0.4-2.8,0.4-4.1c-0.8,0.7-1.6,1.6-2.5,2.2c-1.9,1.4-4.2,1.8-6.5,1.6c-5.3-0.4-9.4-2.8-12.1-7.4c-1.8-3.2-2.3-6.7-1.9-10.3
		c0.4-3.3,1.5-6.4,3.9-8.8c4.1-4.3,9.1-5.7,14.8-4.1C337.2,20.1,338.6,21.1,339.8,22.5z M325.6,34.6c-0.1,0-0.1,0-0.2,0
		c0.3,1.1,0.4,2.2,0.8,3.2c2,4.9,8.8,5.9,12,1.7c1.4-1.9,1.8-4,1.4-6.3c-0.7-4.1-4.3-6.6-8.3-5.8C327.9,28.1,325.6,31,325.6,34.6z"
		/>
	<path fill="#FFFFFF" d="M151.3,23c0-1.1,0-2,0-3c3,0,5.9,0,8.8,0c0,9.8,0,19.6,0,29.4c-2.9,0-5.8,0-8.8,0c0-1,0-1.9,0-3
		c-0.5,0.5-0.9,1.1-1.3,1.5c-1.6,1.5-3.6,2.2-5.8,2.5c-4.4,0.4-8.3-0.6-11.6-3.7c-2.6-2.4-4-5.4-4.5-8.8c-0.6-3.8-0.2-7.5,1.6-11
		c3.1-6.1,10.4-9.3,16.8-7.3c1.9,0.6,3.4,1.6,4.6,3.1C151.1,22.8,151.2,22.8,151.3,23z M144,42.2c4.9,0.1,7.3-4,7.3-7.5
		c0-4.3-3.1-7.4-7.3-7.5c-4.8,0-7.3,3.8-7.3,7.6C136.7,38,139.1,42.3,144,42.2z"/>
	<path fill="#FFFFFF" d="M219.8,19c3.6,0,7.4,1.2,10.4,4.2c2.6,2.5,4.1,5.5,4.6,9c0.8,5.3-0.7,10-4.5,13.8c-2.5,2.6-5.7,3.9-9.3,4.2
		c-3,0.3-6,0-8.8-1.3c-4.7-2.2-7.5-6-8.6-11c-1.4-6.6,1.6-13.7,7.4-16.9C213.6,19.6,216.3,19,219.8,19z M226.2,34.7
		c-0.1-0.5-0.1-1-0.2-1.5c-0.9-4.9-6.3-7.4-10.5-4.9c-2.6,1.6-3.9,4.6-3.3,7.9c0.7,4,4.5,6.6,8.4,5.7
		C223.9,41.2,226.2,38.2,226.2,34.7z"/>
	<path fill="#FFFFFF" d="M282.9,19c3.3,0,7.1,1.2,10.2,4.2c2.6,2.5,4.1,5.5,4.6,9c0.8,5.3-0.7,9.9-4.4,13.8
		c-2.6,2.6-5.8,3.9-9.4,4.3c-3,0.3-6,0-8.8-1.3c-4.6-2.1-7.3-5.7-8.5-10.6c-1.7-6.6,1.3-13.8,7-17.2C276,19.7,278.8,19,282.9,19z
		 M289,34.7c-0.1-0.5-0.1-1.1-0.2-1.6c-0.9-4.8-6.3-7.3-10.4-4.8c-2.6,1.6-3.9,4.6-3.3,7.9c0.7,4,4.6,6.6,8.5,5.7
		C286.7,41.2,289,38.2,289,34.7z"/>
	<path fill="#FFFFFF" d="M190.6,20c-0.4,1.1-0.8,2.2-1.2,3.2c-4.4,11.8-8.9,23.6-13.3,35.5c-0.2,0.4-0.3,0.6-0.8,0.5
		c-2.9,0-5.8,0-8.8,0c0.1-0.2,0.2-0.4,0.2-0.6c1.4-3.4,2.8-6.8,4.2-10.3c0.1-0.3,0.1-0.6,0-0.9c-3.5-9-7-17.9-10.5-26.9
		c-0.1-0.2-0.1-0.4-0.2-0.6c0.5,0,1,0,1.4,0c2.5,0,4.9,0,7.4,0c0.4,0,0.6,0.1,0.8,0.6c1.8,5.3,3.7,10.5,5.5,15.7
		c0.1,0.2,0.2,0.4,0.3,0.7c0.6-1.9,1.2-3.6,1.8-5.4c1.2-3.7,2.4-7.3,3.6-11c0.1-0.4,0.3-0.6,0.8-0.6c2.7,0,5.4,0,8.1,0
		C190.1,20,190.3,20,190.6,20z"/>
	<path fill="#FFFFFF" d="M126.1,28.2c-2.9,0-5.8,0-8.6,0c-0.4-2-2.6-2.9-4.3-1.8c-1.1,0.7-1.2,2-0.1,2.8c1.2,0.9,2.7,1.3,4.2,1.8
		c1.5,0.5,3.1,0.9,4.5,1.5c5.8,2.3,6.1,7.5,4.5,11.4c-1.1,2.9-3.4,4.7-6.3,5.6c-4.1,1.4-8.2,1.2-12-1c-3-1.6-4.5-4.3-4.9-7.6
		c0-0.1,0-0.2,0-0.4c2.9,0,5.8,0,8.7,0c0.2,1.4,1,2.3,2.4,2.6c0.9,0.2,1.8,0.1,2.7-0.3c0.7-0.4,1.3-0.9,1.3-1.8
		c0.1-0.9-0.4-1.5-1.2-1.9c-1.3-0.6-2.7-1.1-4-1.6c-1.5-0.6-3.1-1.1-4.6-1.8c-2.1-1-4-2.4-4.7-4.7c-1-3.3-0.1-6.2,2.2-8.7
		c2.7-2.9,6.3-3.7,10.1-3.4c2.2,0.2,4.4,0.8,6.2,2.1C124.7,22.9,125.8,25.3,126.1,28.2z"/>
	<path fill="#FFFFFF" d="M96.1,50c-2.9,1.8-5.8,3.5-8.6,5.2c2.9,2.9,5.9,5.9,8.8,8.8C94.1,66,92.1,68,90,70.1
		c-2.9-2.9-5.8-5.8-8.8-8.8c-1.7,2.9-3.4,5.7-5.2,8.6c-2.7-9.4-5.3-18.6-8-28C77.4,44.6,86.7,47.3,96.1,50z"/>
	<path fill="#FFFFFF" d="M191.7,49.4c0-13.1,0-26.1,0-39.2c2.9,0,5.8,0,8.8,0c0,13.1,0,26.1,0,39.2
		C197.5,49.4,194.6,49.4,191.7,49.4z"/>
	<path fill="#FFFFFF" d="M246.7,49.4c-3,0-5.9,0-8.8,0c0-9.8,0-19.6,0-29.4c2.7,0,5.5,0,8.2,0c0,1,0,2,0,3c1.6-3,4.2-4,7.5-4
		c0,3,0,5.9,0,8.8c-0.8,0.1-1.5,0.1-2.3,0.2c-3.1,0.4-4.6,2.2-4.6,5.3c0,5.2,0,10.3,0,15.5C246.7,48.9,246.7,49.1,246.7,49.4z"/>
	<path fill="#FFFFFF" d="M300.7,20c2.7,0,5.5,0,8.2,0c0,1,0,2,0,3c1.6-3,4.2-4,7.5-4c0,3,0,5.9,0,8.8c-1,0.1-1.9,0.1-2.8,0.3
		c-2.7,0.5-4,2.1-4.1,4.8c0,1.8,0,3.5,0,5.3c0,3.5,0,7,0,10.5c0,0.2,0,0.4,0,0.7c-2.9,0-5.8,0-8.8,0C300.7,39.6,300.7,29.8,300.7,20
		z"/>
	<path fill="#FFFFFF" d="M253.6,44.9c0-2.5,2-4.5,4.5-4.5c2.5,0,4.5,2.1,4.5,4.6c0,2.5-2.1,4.5-4.6,4.5
		C255.6,49.4,253.6,47.4,253.6,44.9z"/>
	<path fill="#FFFFFF" d="M286.7,60.5c0.7-1.8,1.4-3.7,2-5.6c0.2-0.7,0.5-0.9,1.2-0.8c0.1,0,0.3,0,0.5,0c0.2,2.7,0.3,5.4,0.5,8.2
		c-0.4,0-0.7,0-1.1,0c-0.1-2.1-0.2-4.3-0.4-6.4c0,0-0.1,0-0.1,0c-0.5,1.4-1,2.8-1.5,4.3c-0.2,0.6-0.4,1.1-0.6,1.7
		c-0.1,0.3-0.3,0.4-0.6,0.4c-0.4,0-0.5-0.2-0.5-0.4c-0.6-2-1.3-4-1.9-5.9c0-0.1-0.1-0.2-0.1-0.3c-0.1,2.3-0.3,4.5-0.4,6.7
		c-0.3,0-0.6,0-1,0c0.2-2.7,0.4-5.4,0.6-8.1c0.5,0,0.9,0,1.4,0C285.3,56.2,286,58.4,286.7,60.5z"/>
	<path fill="#FFFFFF" d="M245.3,62.3c0-2.8,0-5.5,0-8.2c1.2,0,2.3-0.1,3.5,0c2.3,0.3,3.5,2,3.2,4.3c-0.3,2.5-1.7,3.7-4.4,3.8
		C246.8,62.4,246.1,62.3,245.3,62.3z M246.4,55c0,2.2,0,4.3,0,6.4c1.7,0.3,3.2-0.1,3.9-1.2c0.7-1.1,0.8-3,0.1-4.1
		C249.4,54.8,247.9,54.8,246.4,55z"/>
	<path fill="#FFFFFF" d="M190.5,54.1c1.3-0.1,1.3-0.1,1.7,1.1c0.7,2.2,1.5,4.3,2.2,6.5c0.1,0.2,0.1,0.4,0.2,0.6c-0.4,0-0.7,0-1.1,0
		c-0.2-0.7-0.5-1.4-0.7-2.1c-0.1-0.3-0.3-0.5-0.6-0.4c-0.7,0-1.3,0-2,0c-0.3,0-0.5,0.1-0.6,0.4c-0.1,0.5-0.4,1-0.5,1.5
		c-0.1,0.5-0.4,0.7-0.9,0.6c-0.1,0-0.2,0-0.4,0C188.7,59.5,189.6,56.8,190.5,54.1z M192.3,58.8c-0.4-1.2-0.8-2.4-1.2-3.6
		c-0.4,1.2-0.8,2.4-1.2,3.6C190.7,58.8,191.5,58.8,192.3,58.8z"/>
	<path fill="#FFFFFF" d="M231.2,62.2c-0.2-0.7-0.5-1.4-0.7-2.1c-0.1-0.3-0.2-0.5-0.6-0.5c-0.6,0-1.3,0-1.9,0c-0.4,0-0.5,0.1-0.7,0.5
		c-0.2,0.7-0.5,1.4-0.7,2.1c-0.4,0-0.7,0-1.1,0c0.9-2.8,1.9-5.5,2.8-8.2c1.3-0.1,1.3-0.1,1.7,1.1c0.8,2.2,1.5,4.4,2.3,6.6
		c0,0.1,0.1,0.3,0.1,0.4C232,62.2,231.6,62.2,231.2,62.2z M230.1,58.8c-0.4-1.2-0.8-2.4-1.2-3.6c-0.4,1.2-0.8,2.4-1.2,3.6
		C228.6,58.8,229.3,58.8,230.1,58.8z"/>
	<path fill="#FFFFFF" d="M265.2,54.1c1.5,0,2.9,0,4.3,0c0,0.3,0,0.5,0,0.9c-1.1,0-2.2,0-3.3,0c0,0.9,0,1.7,0,2.5c1,0,2,0,3.1,0
		c0,0.3,0,0.6,0,0.9c-1,0-2,0-3.1,0c0,1,0,1.9,0,2.9c1.1,0,2.3,0,3.5,0c0,0.3,0,0.6,0,0.9c-1.5,0-3,0-4.6,0
		C265.2,59.5,265.2,56.8,265.2,54.1z"/>
	<path fill="#FFFFFF" d="M213,54.4c-0.1,0.3-0.2,0.5-0.2,0.8c-1.6-0.5-3.1-0.6-4.2,0.9c-0.8,1.1-0.8,3.1,0,4.2
		c0.8,1.1,2.2,1.4,4.2,0.8c0.1,0.3,0.1,0.5,0.2,0.8c-1.8,0.9-4.3,0.4-5.3-1c-1.2-1.5-1.1-4.1,0.1-5.6C208.9,54,211.4,53.5,213,54.4z
		"/>
	<path fill="#FFFFFF" d="M309.9,54.1c-0.6,1.1-1.1,2.1-1.8,3c-0.8,1.1-1.1,2.3-1,3.6c0.1,0.5,0,1,0,1.5c-0.3,0-0.7,0-1.1,0
		c0-0.8,0-1.5,0-2.3c0-0.7-0.1-1.3-0.5-2c-0.7-1.1-1.2-2.3-1.9-3.4c-0.1-0.1-0.1-0.3-0.2-0.4c1.1-0.2,1.1-0.2,1.6,0.7
		c0.5,1,1,2,1.6,3.1c0.5-1,1-2,1.5-2.9C308.7,54,308.7,54,309.9,54.1z"/>
</g>
</svg>
