<?xml version="1.0" encoding="utf-8"?>
<!-- Generator: Adobe Illustrator 18.1.1, SVG Export Plug-In . SVG Version: 6.00 Build 0)  -->
<svg version="1.1" id="Layer_1" xmlns="http://www.w3.org/2000/svg" xmlns:xlink="http://www.w3.org/1999/xlink" x="0px" y="0px"
	 viewBox="0 0 612 792" enable-background="new 0 0 612 792" xml:space="preserve">
<g>
	<path fill="#469DCC" d="M68.2,453.7c1.4-1.4,3.1-2.8,4.5-4.4c4.7-5.2,8.2-11.2,10-18c2.3-8.9,0.3-17.1-5.2-24.3
		c-2.8-3.7-5.8-7.2-7.9-11.2c-3.1-6.1-5.1-12.4-4.5-19.4c0.5-9.1,3.8-16.8,10.1-23.2c5.2-5.4,11.9-9.4,18.9-12.8
		c10.1-4.7,21-7.7,32.2-9.1c5.4-0.7,11-1,16.6-1.2c6.5-0.2,13.1-0.2,19.6-0.2c0.2,0,0.5,0,0.9,0c-3.7,24.5-7.5,48.6-11.2,73
		c-1.9-0.5-3.5-1-5.1-1.4c-3.3-0.9-6.6-1.9-10-2.8c-0.7-0.2-1-0.5-0.9-1.4c1.2-7,2.3-14,3.3-21c1.2-7.7,2.4-15.4,3.7-23.2
		c0.3-1.9,0.5-3.8,0.9-5.8c0-0.2,0-0.5,0-0.7c-1.9,0-3.7-0.2-5.4,0c-6.6,0.3-13.3,1.2-19.7,2.8c-10.3,2.4-19.9,6.3-28.5,12.4
		c-4.7,3.3-7.7,7.9-8.6,13.6c-0.5,4,0.3,7.9,2.1,11.5c1.6,3.3,4,6.3,6.3,9.1c5.1,6.3,8.6,13.5,9.8,21.7c0.9,5.4,0.5,11-0.7,16.4
		c0,0.2,0,0.5-0.2,0.9c6.6-2.3,13.5-4,20.4-4.9c1.6,5.4,3,10.7,4.5,16.1c-1.7,0.3-3.5,0.5-5.2,0.9c-10.8,1.9-21,5.4-30.1,11.5
		c-1.7,1.2-3.7,2.3-5.6,3.3c-0.3,0.2-0.7,0.2-1,0C77.4,459.3,73,456.6,68.2,453.7z"/>
	<path fill="#FFFFFF" d="M34.1,429.2c9.8,0.3,18.9,1.9,28,4.7c3.1,1,6.3,2.3,9.8,3.5c-1.4,2.1-2.6,4-4,5.6c-2.3,2.6-4.7,4.9-7.2,7.3
		c-0.2,0.2-0.7,0.2-1,0.2c-8.2-2.6-16.6-4.4-25.2-4.5c-4-0.2-7.9,0.2-11.9,0.3c-0.5,0-1.2,0-1.9,0c-7.2-38.6-12.9-77.4-18.9-116.4
		c0.5,0,0.9,0,1.2,0c5.8,0,11.7,0,17.5,0c15.7,0.2,31.1,2.4,45.8,8.4c3,1.2,5.9,2.6,8.9,4c-2.3,2.1-4.4,4-6.3,6.1
		c-1.9,2.1-3.7,4.4-5.4,6.8c-6.5-3-13.5-5.1-20.4-6.5c-7.2-1.4-14.3-2.1-21.8-2.3C25.3,374.2,29.7,401.8,34.1,429.2z"/>
	<path fill="#FFFFFF" d="M167.9,415.6c-5.1,3.1-10.1,6.1-15,9.1c5.1,5.1,10.3,10.3,15.4,15.4c-3.8,3.5-7.3,7-11,10.7
		c-5.1-5.1-10.1-10.1-15.4-15.4c-3,5.1-5.9,10-9.1,15c-4.7-16.4-9.3-32.5-14-48.9C135.3,406.1,151.5,410.9,167.9,415.6z"/>
</g>
</svg>
