<?xml version="1.0" encoding="utf-8"?>
<!-- Generator: Adobe Illustrator 18.1.1, SVG Export Plug-In . SVG Version: 6.00 Build 0)  -->
<svg version="1.1" id="Layer_1" xmlns="http://www.w3.org/2000/svg" xmlns:xlink="http://www.w3.org/1999/xlink" x="0px" y="0px"
	 viewBox="0 0 612 471" enable-background="new 0 0 612 471" xml:space="preserve">
<g>
	<path fill="#469DCC" d="M249,434.5c4.9-4.9,10.8-9.8,15.7-15.4c16.4-18.2,28.6-39.3,34.9-63.2c8-31.2,1-60-18.1-85.3
		c-9.8-13-20.2-25.3-27.5-39.3c-10.8-21.4-17.8-43.5-15.7-68.1c1.7-31.9,13.2-59,35.2-81.4c18.1-19,41.5-33,65.9-44.9
		c35.2-16.5,73.2-27,112.3-31.9c18.8-2.5,38.4-3.5,57.9-4.2C532.1,0,555.1,0,577.8,0c0.7,0,1.7,0,3.1,0
		c-12.9,86-26.1,170.6-39,256.2c-6.6-1.8-12.2-3.5-17.8-4.9c-11.5-3.2-23-6.7-34.9-9.8c-2.4-0.7-3.5-1.8-3.1-4.9
		c4.2-24.6,8-49.1,11.5-73.7c4.2-27,8.4-54,12.9-81.4c1-6.7,1.7-13.3,3.1-20.4c0-0.7,0-1.8,0-2.5c-6.6,0-12.9-0.7-18.8,0
		c-23,1.1-46.4,4.2-68.7,9.8c-35.9,8.4-69.4,22.1-99.4,43.5c-16.4,11.6-26.8,27.7-30,47.7c-1.7,14,1,27.7,7.3,40.4
		c5.6,11.6,13.9,22.1,22,31.9c17.8,22.1,30,47.4,34.2,76.2c3.1,19,1.7,38.6-2.4,57.6c0,0.7,0,1.8-0.7,3.2c23-8.1,47.1-14,71.1-17.2
		c5.6,19,10.5,37.6,15.7,56.5c-5.9,1.1-12.2,1.8-18.1,3.2c-37.7,6.7-73.2,19-104.9,40.4c-5.9,4.2-12.9,8.1-19.5,11.6
		c-1,0.7-2.4,0.7-3.5,0C281.1,454.1,265.7,444.6,249,434.5z"/>
	<path fill="#FFFFFF" d="M130.1,348.5c34.2,1.1,65.9,6.7,97.6,16.5c10.8,3.5,22,8.1,34.2,12.3c-4.9,7.4-9.1,14-13.9,19.7
		c-8,9.1-16.4,17.2-25.1,25.6c-0.7,0.7-2.4,0.7-3.5,0.7c-28.6-9.1-57.9-15.4-87.9-15.8c-13.9-0.7-27.5,0.7-41.5,1.1
		c-1.7,0-4.2,0-6.6,0C58.3,273,38.4,136.9,17.5,0c1.7,0,3.1,0,4.2,0c20.2,0,40.8,0,61,0c54.7,0.7,108.4,8.4,159.7,29.5
		c10.5,4.2,20.6,9.1,31,14c-8,7.4-15.3,14-22,21.4c-6.6,7.4-12.9,15.4-18.8,23.9C210,78.3,185.5,70.9,161.5,66
		c-25.1-4.9-49.9-7.4-76-8.1C99.4,155.5,114.8,252.3,130.1,348.5z"/>
	<path fill="#FFFFFF" d="M596.6,300.8c-17.8,10.9-35.2,21.4-52.3,31.9c17.8,17.9,35.9,36.1,53.7,54c-13.2,12.3-25.5,24.6-38.4,37.6
		c-17.8-17.9-35.2-35.4-53.7-54c-10.5,17.9-20.6,35.1-31.7,52.6c-16.4-57.6-32.4-114.1-48.8-171.6
		C482.9,267.4,539.4,284.3,596.6,300.8z"/>
</g>
</svg>
